<?xml version="1.0" encoding="UTF-8"?><svg id="Layer_2" xmlns="http://www.w3.org/2000/svg" viewBox="0 0 1914.336 1083.5336"><defs><style>.cls-1,.cls-2{fill:#f0f1f3;}.cls-3,.cls-4{fill:#808395;}.cls-5,.cls-6{fill:#a0a2b0;}.cls-7,.cls-8{fill:#c0c2ca;}.cls-9,.cls-10{fill:#d0d1d8;}.cls-11,.cls-12,.cls-13,.cls-14,.cls-15{fill:#111838;}.cls-16,.cls-17,.cls-18,.cls-19,.cls-20,.cls-21,.cls-22{fill:#1f2644;}.cls-23,.cls-24,.cls-25,.cls-26{fill:#131a3a;}.cls-27,.cls-28,.cls-29{fill:#0f1637;}.cls-30,.cls-31,.cls-32,.cls-33,.cls-34{fill:#3f455f;}.cls-35,.cls-36,.cls-37{fill:#2f3552;}.cls-38{fill:#272d4b;}.cls-39,.cls-40,.cls-41{fill:#4f546d;}.cls-24,.cls-12,.cls-28{stroke:#111838;}.cls-17{stroke:#4f546d;}.cls-18,.cls-31,.cls-29,.cls-25,.cls-21,.cls-15,.cls-40{stroke:#5f647a;}.cls-19{stroke:#2f3552;}.cls-10,.cls-42,.cls-43,.cls-4,.cls-6,.cls-2,.cls-13,.cls-20,.cls-31,.cls-32,.cls-29,.cls-14,.cls-25,.cls-21,.cls-22,.cls-33,.cls-26,.cls-15,.cls-34,.cls-8,.cls-44,.cls-45,.cls-40,.cls-41,.cls-36,.cls-37,.cls-46{stroke-width:.5px;}.cls-10,.cls-42,.cls-43,.cls-4,.cls-6,.cls-2,.cls-32,.cls-14,.cls-22,.cls-26,.cls-8,.cls-44,.cls-45,.cls-41,.cls-36{stroke:#b0b2bd;}.cls-42{fill:#b0b2bd;}.cls-43{fill:#9093a2;}.cls-13,.cls-34{stroke:#3f455f;}.cls-20,.cls-33{stroke:#9093a2;}.cls-44{fill:#e0e1e5;}.cls-45,.cls-46{fill:#5f647a;}.cls-37{stroke:#c0c2ca;}.cls-46{stroke:#808395;}</style></defs><g id="class_top-left-dark"><g><polygon class="cls-2" points="805.8102 957.2598 799.7726 1082.8387 906.433 962.9685 805.8102 957.2598"/><polygon class="cls-2" points="996.9924 957.2598 1001.0183 1082.8387 1198.2378 1042.8829 996.9924 957.2598"/><polygon class="cls-2" points="1258.6125 1037.1741 1479.9798 1054.2977 1490.0429 962.9685 1258.6125 1037.1741"/><polygon class="cls-2" points="1530.2911 962.9685 1600.7289 1082.8387 1711.4103 974.3833 1530.2911 962.9685"/><polygon class="cls-2" points="1801.9743 1014.3418 1600.7289 1082.8387 1801.9743 1082.8387 1801.9743 1014.3418"/><polygon class="cls-2" points="1741.5999 803.1398 1661.0987 911.5952 1822.0962 883.0529 1741.5999 803.1398"/><polygon class="cls-2" points="1751.663 683.267 1721.4734 774.5975 1902.5925 717.5168 1751.663 683.267"/><polygon class="cls-2" points="1822.0962 883.0529 1761.7216 985.8008 1912.6557 905.8864 1822.0962 883.0529"/><polygon class="cls-1" points="1801.9743 1014.3418 1912.6557 1020.0506 1912.6557 905.8864 1801.9743 1014.3418"/><polygon class="cls-44" points="906.433 962.9683 799.7726 1082.8385 1001.0183 1082.8385 906.433 962.9683"/><polygon class="cls-44" points="1198.2378 1042.8827 1001.0183 1082.8385 1200.2496 1082.8385 1198.2378 1042.8827"/><polygon class="cls-44" points="1147.9266 945.8421 996.9924 957.2596 1198.2378 980.0919 1147.9266 945.8421"/><polygon class="cls-44" points="1198.2378 980.0919 1198.2378 1042.8827 1258.6125 1037.1739 1198.2378 980.0919"/><polygon class="cls-44" points="1198.2378 1042.8827 1200.2496 1082.8385 1258.6125 1037.1739 1198.2378 1042.8827"/><polygon class="cls-44" points="1258.6125 1037.1739 1401.4952 1082.8385 1479.9798 1054.2975 1258.6125 1037.1739"/><polygon class="cls-44" points="1530.2911 962.9683 1479.9798 1054.2975 1600.7289 1082.8385 1530.2911 962.9683"/><polygon class="cls-44" points="1661.0987 911.5951 1530.2911 962.9683 1711.4103 974.3831 1661.0987 911.5951"/><polygon class="cls-44" points="1550.4176 637.6022 1610.792 700.3904 1731.5365 614.7673 1550.4176 637.6022"/><polygon class="cls-44" points="1610.792 700.3904 1721.4734 774.5973 1751.663 683.2668 1610.792 700.3904"/><polygon class="cls-44" points="1801.9743 1014.3416 1801.9743 1082.8385 1912.6557 1020.0504 1801.9743 1014.3416"/><polygon class="cls-44" points="1761.7216 985.8006 1801.9743 1014.3416 1912.6557 905.8862 1761.7216 985.8006"/><polygon class="cls-44" points="1902.5925 717.5166 1721.4734 774.5973 1912.6557 792.8634 1902.5925 717.5166"/><polygon class="cls-44" points="1741.5999 803.1397 1822.0962 883.0527 1912.6557 792.8634 1741.5999 803.1397"/><polygon class="cls-44" points="1529.8363 751.7637 1660.6439 911.5951 1741.145 803.1397 1529.8363 751.7637"/><polygon class="cls-10" points="252.3874 933.8574 161.8301 1002.3543 282.5746 968.1045 252.3874 933.8574"/><polygon class="cls-10" points="600.5413 1082.2686 799.7726 1082.2686 805.8102 956.6897 600.5413 1082.2686"/><polygon class="cls-10" points="996.9924 956.6897 906.433 962.3984 1001.0183 1082.2686 996.9924 956.6897"/><polygon class="cls-10" points="1198.2378 979.522 996.9924 956.6897 1198.2378 1042.3128 1198.2378 979.522"/><polygon class="cls-10" points="1490.0429 962.3984 1479.9798 1053.7276 1530.2911 962.3984 1490.0429 962.3984"/><polygon class="cls-10" points="1711.4103 973.8132 1600.7289 1082.2686 1801.9743 1013.7717 1711.4103 973.8132"/><polygon class="cls-10" points="1661.0987 911.0251 1711.4103 973.8132 1822.0962 882.4828 1661.0987 911.0251"/><polygon class="cls-10" points="1822.0962 882.4828 1912.6557 905.3163 1912.6557 792.2935 1822.0962 882.4828"/><polygon class="cls-9" points="1912.6557 1019.4805 1801.9743 1082.2686 1912.6557 1082.2686 1912.6557 1019.4805"/><polygon class="cls-10" points="685.0633 911.5952 514.0051 1014.3417 805.8102 957.2597 685.0633 911.5952"/><polygon class="cls-10" points="936.6226 808.8459 926.5592 877.3454 966.8074 871.6367 936.6226 808.8459"/><polygon class="cls-10" points="1149.6069 894.469 998.6727 923.0099 1149.6069 945.8422 1149.6069 894.469"/><polygon class="cls-10" points="1067.4278 803.1398 1147.9266 894.469 1329.0457 757.4725 1067.4278 803.1398"/><polygon class="cls-10" points="1147.9266 894.469 1198.2378 980.092 1490.0429 962.9684 1147.9266 894.469"/><polygon class="cls-10" points="1329.0457 757.4725 1359.2353 768.89 1530.2911 723.2228 1329.0457 757.4725"/><polygon class="cls-10" points="1490.0429 962.9684 1530.2911 962.9684 1661.0987 911.5952 1490.0429 962.9684"/><polygon class="cls-10" points="1359.2353 768.89 1490.0429 962.9684 1530.2911 751.7638 1359.2353 768.89"/><polygon class="cls-10" points="1610.792 700.3905 1530.2911 751.7638 1721.4734 774.5974 1610.792 700.3905"/><polygon class="cls-10" points="1661.0987 563.394 1550.4176 637.6023 1731.5365 614.7674 1661.0987 563.394"/><polygon class="cls-10" points="1711.4103 974.3832 1761.7216 985.8007 1822.0962 883.0528 1711.4103 974.3832"/><polygon class="cls-10" points="1731.5365 614.7674 1751.663 683.2669 1882.4706 649.0171 1731.5365 614.7674"/><polygon class="cls-9" points="1912.6557 678.698 1902.5925 717.5153 1912.6557 792.8621 1912.6557 678.698"/><polygon class="cls-7" points="1.5073 1020.0498 1.5073 1082.8379 162.5046 1002.9236 1.5073 1020.0498"/><polygon class="cls-8" points="1.5073 905.8856 162.5046 1002.9236 253.0619 934.4267 1.5073 905.8856"/><polygon class="cls-8" points="253.0619 934.4267 283.2491 968.6738 474.4313 945.8415 253.0619 934.4267"/><polygon class="cls-8" points="514.6795 1014.3409 399.9701 1082.8379 601.2158 1082.8379 514.6795 1014.3409"/><polygon class="cls-8" points="756.1733 871.6359 807.9651 960.1133 932.2675 877.5349 756.1733 871.6359"/><polygon class="cls-8" points="997.6669 923.0092 907.1074 962.9677 997.6669 957.259 997.6669 923.0092"/><polygon class="cls-8" points="1259.2869 1037.1732 1200.924 1082.8379 1402.1696 1082.8379 1259.2869 1037.1732"/><polygon class="cls-8" points="1359.9097 768.8892 1148.601 894.4682 1490.7174 962.9677 1359.9097 768.8892"/><polygon class="cls-8" points="1480.6543 1054.2968 1402.1696 1082.8379 1601.4033 1082.8379 1480.6543 1054.2968"/><polygon class="cls-8" points="1721.6498 774.5976 1530.4675 751.7639 1741.7762 803.1399 1721.6498 774.5976"/><polygon class="cls-8" points="1761.8979 985.8008 1711.5867 974.3833 1802.1507 1014.3418 1761.8979 985.8008"/><polygon class="cls-42" points="162.5046 1002.9249 1.5073 1082.8392 200.741 1082.8392 162.5046 1002.9249"/><polygon class="cls-42" points="1198.9123 980.0926 1259.2869 1037.1746 1490.7174 962.969 1198.9123 980.0926"/><polygon class="cls-42" points="1530.9656 751.7644 1490.7174 962.969 1661.7732 911.5957 1530.9656 751.7644"/><polygon class="cls-42" points="1108.3518 661.0031 1068.1012 803.7083 1269.349 712.3764 1108.3518 661.0031"/><polygon class="cls-42" points="1268.852 711.8059 1329.2221 757.4704 1530.4675 723.2208 1268.852 711.8059"/><polygon class="cls-6" points="254.0677 1008.6316 201.7469 1082.8372 400.976 1082.8372 254.0677 1008.6316"/><polygon class="cls-6" points="284.2549 968.6731 394.9408 991.5067 475.4372 945.8408 284.2549 968.6731"/><polygon class="cls-6" points="394.9408 991.5067 400.976 1082.8372 515.6854 1014.3403 394.9408 991.5067"/><polygon class="cls-6" points="505.6246 871.6352 475.4372 945.8408 686.7435 911.5937 505.6246 871.6352"/><polygon class="cls-6" points="475.4372 945.8408 515.6854 1014.3403 686.7435 911.5937 475.4372 945.8408"/><polygon class="cls-5" points="666.6195 768.8885 505.6246 871.6352 676.6828 877.3439 666.6195 768.8885"/><polygon class="cls-6" points="515.6854 1014.3403 602.2216 1082.8372 807.4905 957.2583 515.6854 1014.3403"/><polygon class="cls-6" points="757.1792 871.6352 686.7435 911.5937 807.4905 957.2583 757.1792 871.6352"/><polygon class="cls-6" points="827.6145 825.9706 757.1792 871.6352 928.2395 877.3439 827.6145 825.9706"/><polygon class="cls-6" points="807.4905 957.2577 908.1133 962.9663 928.2395 877.3439 807.4905 957.2577"/><polygon class="cls-6" points="968.4877 871.6352 928.2395 877.3439 998.6727 923.0085 968.4877 871.6352"/><polygon class="cls-6" points="998.6727 923.0085 998.6727 957.2583 1149.6069 945.8408 998.6727 923.0085"/><polygon class="cls-6" points="1069.1081 803.1383 968.4877 871.6352 1149.6069 894.4675 1069.1081 803.1383"/><polygon class="cls-6" points="978.551 723.2214 1069.1081 803.1383 1109.3587 660.4332 978.551 723.2214"/><polygon class="cls-6" points="1149.6069 894.4675 1149.6069 945.8408 1199.9181 980.0906 1149.6069 894.4675"/><polygon class="cls-6" points="1330.726 757.471 1149.6069 894.4675 1360.9156 768.8885 1330.726 757.471"/><polygon class="cls-6" points="1411.2269 586.2276 1270.3559 711.8064 1531.9714 723.2214 1411.2269 586.2276"/><polygon class="cls-6" points="1733.2168 512.0207 1662.779 563.3926 1733.2168 614.766 1733.2168 512.0207"/><polygon class="cls-5" points="1884.1509 649.0157 1914.336 678.698 1914.336 565.6777 1884.1509 649.0157"/><polygon class="cls-6" points="1721.4734 774.596 1741.5999 803.1383 1912.6557 792.8621 1721.4734 774.596"/><polygon class="cls-43" points="393.9362 991.5096 253.063 1008.6344 399.9713 1082.84 393.9362 991.5096"/><polygon class="cls-43" points="927.2348 877.3468 907.1086 962.9698 997.6681 923.0113 927.2348 877.3468"/><polygon class="cls-43" points="1198.9135 666.1435 1108.354 660.436 1269.3512 711.8093 1198.9135 666.1435"/><polygon class="cls-3" points="1.5073 905.8856 1.5073 1020.0498 162.5046 1002.9236 1.5073 905.8856"/><polygon class="cls-4" points="162.5046 1002.9236 200.741 1082.8379 253.0619 1008.6323 162.5046 1002.9236"/><polygon class="cls-4" points="313.4365 854.5123 253.0619 934.4267 474.4313 945.8415 313.4365 854.5123"/><polygon class="cls-4" points="806.4846 803.139 756.1733 871.6359 826.6087 825.9713 806.4846 803.139"/><polygon class="cls-4" points="1269.3512 712.376 1068.1034 803.7079 1329.7213 758.0406 1269.3512 712.376"/><polygon class="cls-4" points="1551.0932 638.1704 1530.9668 723.7909 1611.4676 700.9586 1551.0932 638.1704"/><polygon class="cls-4" points="1732.2121 615.3355 1611.4676 700.9586 1752.3386 683.835 1732.2121 615.3355"/><polygon class="cls-4" points="1752.3386 683.835 1883.1462 678.1263 1883.1462 649.5852 1752.3386 683.835"/><polygon class="cls-4" points="1732.2121 615.3355 1883.1462 649.5852 1913.3313 566.2473 1732.2121 615.3355"/><polygon class="cls-45" points="666.8497 768.8886 757.4094 871.6353 807.7207 803.1384 666.8497 768.8886"/><polygon class="cls-45" points="757.4094 569.1015 676.913 688.9742 858.032 654.7246 757.4094 569.1015"/><polygon class="cls-45" points="928.4697 723.2215 807.7207 803.1384 938.5331 808.8445 928.4697 723.2215"/><polygon class="cls-46" points="938.5331 620.4748 978.7812 723.2215 1089.4624 637.601 938.5331 620.4748"/><polygon class="cls-45" points="1330.9562 460.6473 1411.4571 586.2277 1663.0092 563.3927 1330.9562 460.6473"/><polygon class="cls-45" points="1733.447 512.0208 1733.447 614.7661 1854.1915 523.4381 1733.447 512.0208"/><polygon class="cls-45" points="274.1918 843.0969 254.0677 934.4288 314.4424 854.5144 274.1918 843.0969"/><polygon class="cls-45" points="284.2549 968.6759 254.0677 1008.6344 394.9408 991.5095 284.2549 968.6759"/><polygon class="cls-45" points="364.756 808.8472 314.4424 854.5144 505.6246 871.638 364.756 808.8472"/><polygon class="cls-45" points="475.4372 945.8436 394.9408 991.5095 515.6854 1014.3431 475.4372 945.8436"/><polygon class="cls-45" points="162.8657 1002.9217 253.423 1008.6304 283.6102 968.6719 162.8657 1002.9217"/><polygon class="cls-45" points="273.547 843.0929 313.7976 854.5104 364.1113 808.8432 273.547 843.0929"/><polygon class="cls-45" points="1159.0252 620.4735 1189.2103 626.1822 1269.7111 500.6045 1159.0252 620.4735"/><polygon class="cls-39" points="675.677 688.9748 655.555 751.763 736.0514 734.6394 675.677 688.9748"/><polygon class="cls-39" points="665.6136 768.8892 675.677 877.3446 756.1733 871.6359 665.6136 768.8892"/><polygon class="cls-41" points="736.0514 734.6394 806.4846 803.139 846.7373 711.8071 736.0514 734.6394"/><polygon class="cls-41" points="806.4846 803.139 826.6087 825.9713 937.297 808.8451 806.4846 803.139"/><polygon class="cls-41" points="856.7959 654.7252 927.2336 723.2221 937.297 620.4754 856.7959 654.7252"/><polygon class="cls-41" points="937.297 808.8451 967.4818 871.6359 1068.1022 803.139 937.297 808.8451"/><polygon class="cls-41" points="1088.2263 637.6016 977.5452 723.2221 1108.3528 660.4339 1088.2263 637.6016"/><polygon class="cls-40" points="937.297 534.8562 937.297 609.0606 1088.2263 637.6016 937.297 534.8562"/><polygon class="cls-41" points="1088.2263 637.6016 1108.3528 660.4339 1158.6641 620.4754 1088.2263 637.6016"/><polygon class="cls-41" points="1329.7201 460.6479 1269.35 500.6064 1410.221 586.2283 1329.7201 460.6479"/><polygon class="cls-41" points="1359.9097 768.8892 1530.9656 751.763 1530.9656 723.2221 1359.9097 768.8892"/><polygon class="cls-41" points="1410.221 586.2283 1530.9656 723.2221 1551.092 637.6016 1410.221 586.2283"/><polygon class="cls-41" points="1883.145 677.5575 1752.3374 683.2662 1903.267 717.516 1883.145 677.5575"/><polygon class="cls-41" points="1852.9554 523.4387 1732.2109 614.7667 1913.3301 565.6784 1852.9554 523.4387"/><polygon class="cls-39" points="706.045 563.3934 615.4856 620.4755 756.3565 569.1022 706.045 563.3934"/><polygon class="cls-30" points="1.5049 905.8837 253.0595 934.4248 273.1836 843.0929 1.5049 905.8837"/><polygon class="cls-32" points="212.8137 740.3464 232.9354 814.5519 363.7478 808.8432 212.8137 740.3464"/><polygon class="cls-32" points="313.4341 854.5104 474.429 945.8396 504.6164 871.634 313.4341 854.5104"/><polygon class="cls-32" points="363.7478 808.8432 504.6164 871.634 655.5527 751.7611 363.7478 808.8432"/><polygon class="cls-32" points="736.049 734.6375 665.6112 768.8873 806.4822 803.1371 736.049 734.6375"/><polygon class="cls-34" points="675.6746 688.9729 846.7349 711.8052 856.7935 654.7233 675.6746 688.9729"/><polygon class="cls-32" points="846.7349 711.8052 806.4822 803.1371 927.2313 723.2202 846.7349 711.8052"/><polygon class="cls-34" points="937.2946 620.4735 927.2313 723.2202 977.5428 723.2202 937.2946 620.4735"/><polygon class="cls-32" points="977.5428 723.2202 937.2946 808.8432 1068.0999 803.1371 977.5428 723.2202"/><polygon class="cls-32" points="1158.6617 620.4735 1108.3504 660.432 1198.9099 666.1394 1158.6617 620.4735"/><polygon class="cls-32" points="1198.9099 666.1394 1269.3477 711.8052 1410.2186 586.2264 1198.9099 666.1394"/><polygon class="cls-32" points="1269.3477 500.6045 1188.8468 626.1822 1410.2186 586.2264 1269.3477 500.6045"/><polygon class="cls-30" points="676.0402 877.3446 686.101 911.5944 756.5366 871.6359 676.0402 877.3446"/><polygon class="cls-31" points="766.5997 529.1475 756.5366 569.1021 826.9719 551.9785 766.5997 529.1475"/><polygon class="cls-31" points="826.9719 551.9785 756.5366 569.1021 857.1591 654.7252 826.9719 551.9785"/><polygon class="cls-32" points="1330.0834 460.6479 1662.1364 563.3933 1732.5742 512.0214 1330.0834 460.6479"/><polygon class="cls-30" points="454.6705 546.2698 384.2351 551.9785 504.982 666.1413 454.6705 546.2698"/><polygon class="cls-33" points="1813.0705 432.1083 1732.5742 512.0214 1853.3187 523.4387 1813.0705 432.1083"/><polygon class="cls-32" points="1883.5083 677.5575 1903.6302 717.516 1913.6934 678.6987 1883.5083 677.5575"/><polygon class="cls-32" points="1883.5083 649.0163 1883.5083 677.5575 1913.6934 678.6987 1883.5083 649.0163"/><polygon class="cls-30" points="1823.1339 300.8179 1813.0705 432.1083 1913.6934 338.4928 1823.1339 300.8179"/><polygon class="cls-32" points="1813.0705 432.1083 1853.3187 523.4387 1913.6934 451.5142 1813.0705 432.1083"/><polygon class="cls-36" points="856.7959 655.8683 846.7373 712.9502 927.2337 724.3652 856.7959 655.8683"/><polygon class="cls-36" points="927.2337 724.3652 937.297 809.9882 977.5452 724.3652 927.2337 724.3652"/><polygon class="cls-36" points="1188.8492 627.3272 1158.6641 621.6185 1198.9123 667.2844 1188.8492 627.3272"/><polygon class="cls-36" points="1530.9656 724.3652 1530.9656 752.9062 1611.4664 701.5329 1530.9656 724.3652"/><polygon class="cls-36" points="1410.221 587.3714 1551.092 638.7447 1661.7732 564.5364 1410.221 587.3714"/><polygon class="cls-37" points="1460.5323 324.796 1732.2109 513.1645 1812.7073 433.2514 1460.5323 324.796"/><polygon class="cls-35" points="1913.3301 225.4744 1822.7706 301.9611 1913.3301 339.6359 1913.3301 225.4744"/><polygon class="cls-35" points="1913.3301 452.6573 1852.9554 524.5818 1913.3301 566.8215 1913.3301 452.6573"/><polygon class="cls-35" points="454.6705 546.2699 504.982 666.1415 545.2324 551.9786 454.6705 546.2699"/><polygon class="cls-35" points="655.9183 751.7632 504.982 871.6361 665.9769 768.8894 655.9183 751.7632"/><polygon class="cls-35" points="676.0402 877.3447 504.982 871.6361 686.101 911.5945 676.0402 877.3447"/><polygon class="cls-35" points="655.9183 751.7632 665.9769 768.8894 736.4146 734.6396 655.9183 751.7632"/><polygon class="cls-36" points="676.0402 688.975 736.4146 734.6396 847.1006 711.8073 676.0402 688.975"/><polygon class="cls-36" points="857.1591 654.7253 937.6603 620.4755 937.6603 609.0607 857.1591 654.7253"/><polygon class="cls-36" points="826.9719 825.9715 927.5969 877.3447 937.6603 808.8453 826.9719 825.9715"/><polygon class="cls-36" points="937.6603 609.0607 937.6603 620.4755 1088.5896 637.6017 937.6603 609.0607"/><polygon class="cls-36" points="967.8451 871.6361 998.0301 923.0093 1148.9643 894.4684 967.8451 871.6361"/><polygon class="cls-36" points="1189.2124 626.1842 1199.2755 666.1415 1410.5843 586.2284 1189.2124 626.1842"/><polygon class="cls-35" points="1460.8956 323.6531 1813.0705 432.1084 1823.1339 300.8181 1460.8956 323.6531"/><polygon class="cls-35" points="1913.6934 338.4929 1813.0705 432.1084 1913.6934 451.5144 1913.6934 338.4929"/><polygon class="cls-36" points="233.116 814.0396 273.3641 842.5806 363.9284 808.3309 233.116 814.0396"/><polygon class="cls-22" points="212.8161 739.3217 363.7502 807.8186 504.6188 665.1148 212.8161 739.3217"/><polygon class="cls-22" points="937.297 533.8297 1088.2263 636.575 1158.6641 619.4488 937.297 533.8297"/><polygon class="cls-21" points="1178.7906 448.2053 1158.6641 619.4488 1269.35 499.5799 1178.7906 448.2053"/><polygon class="cls-21" points="1178.7906 448.2053 1269.35 499.5799 1329.7201 459.6214 1178.7906 448.2053"/><polygon class="cls-20" points="1460.5323 322.6264 1329.7201 459.6214 1732.2109 510.9948 1460.5323 322.6264"/><polygon class="cls-16" points="1722.1479 242.7107 1822.7706 299.7914 1913.3301 223.3047 1722.1479 242.7107"/><polygon class="cls-16" points="544.8691 443.5245 635.4264 483.4802 665.6136 420.6922 544.8691 443.5245"/><polygon class="cls-16" points="605.2438 591.9344 615.3023 620.4754 705.8618 563.3933 605.2438 591.9344"/><polygon class="cls-21" points="766.2365 529.1475 826.6087 551.9785 937.297 534.8562 766.2365 529.1475"/><polygon class="cls-20" points="1068.1023 386.441 937.297 534.8562 1178.7906 449.2318 1068.1023 386.441"/><polygon class="cls-16" points="1400.4217 158.1141 1269.6138 203.7814 1460.7961 323.6529 1400.4217 158.1141"/><polygon class="cls-16" points="1722.4116 243.7372 1460.7961 323.6529 1823.0344 300.8179 1722.4116 243.7372"/><polygon class="cls-22" points="92.3306 774.5973 1.7711 905.8862 233.2016 814.5544 92.3306 774.5973"/><polygon class="cls-18" points="504.8826 666.1419 655.8188 751.7636 675.9407 688.9754 504.8826 666.1419"/><polygon class="cls-17" points="615.5661 620.476 675.9407 688.9754 756.4371 569.1027 615.5661 620.476"/><polygon class="cls-21" points="826.8725 551.9791 857.0597 654.7258 937.5608 609.0612 826.8725 551.9791"/><polygon class="cls-16" points="1068.366 386.4416 1179.0544 449.2324 1179.0544 409.2739 1068.366 386.4416"/><polygon class="cls-16" points="1108.6166 329.3596 1179.0544 409.2739 1460.7961 323.6535 1108.6166 329.3596"/><polygon class="cls-16" points="62.1434 677.5581 92.3306 774.5973 213.0799 740.3489 62.1434 677.5581"/><polygon class="cls-19" points="616.3082 620.476 505.6246 666.142 676.6828 688.9755 616.3082 620.476"/><polygon class="cls-26" points="212.8161 740.3489 92.0668 774.5973 232.9378 814.5544 212.8161 740.3489"/><polygon class="cls-25" points="937.297 534.8568 1158.6641 620.476 1178.7906 449.2324 937.297 534.8568"/><polygon class="cls-23" points="1269.35 203.782 1108.3528 329.3596 1460.5323 323.6535 1269.35 203.782"/><polygon class="cls-23" points="1178.7906 409.2739 1329.7201 460.6486 1460.5323 323.6535 1178.7906 409.2739"/><polygon class="cls-24" points="162.5046 643.3083 212.8161 740.3489 504.6188 666.1419 162.5046 643.3083"/><polygon class="cls-23" points="595.1806 540.5617 605.2438 591.9324 655.555 534.8542 595.1806 540.5617"/><polygon class="cls-23" points="544.8691 443.5245 544.8691 551.9785 595.1806 540.5637 544.8691 443.5245"/><polygon class="cls-23" points="1641.6515 123.8657 1400.1579 158.1141 1722.1479 243.7372 1641.6515 123.8657"/><polygon class="cls-23" points="1913.3301 111.3071 1722.1479 243.7372 1913.3301 224.3313 1913.3301 111.3071"/><polygon class="cls-23" points="1108.3516 329.3602 1068.1011 386.4422 1178.7894 409.2745 1108.3516 329.3602"/><polygon class="cls-23" points="605.2438 592.3438 504.6188 666.5508 615.3023 620.8848 605.2438 592.3438"/><polygon class="cls-23" points="705.6736 563.6736 755.9081 569.5968 766.5002 529.6862 705.6736 563.6736"/><polygon class="cls-11" points="1.5028 792.8621 1.5028 905.8849 92.0623 774.596 1.5028 792.8621"/><polygon class="cls-11" points="61.8751 677.5568 1.5028 706.0978 92.0623 774.596 61.8751 677.5568"/><polygon class="cls-14" points="232.9333 814.5531 1.5028 905.8849 273.1814 843.0941 232.9333 814.5531"/><polygon class="cls-14" points="504.6143 666.1406 363.7457 808.8445 655.5505 751.7624 504.6143 666.1406"/><polygon class="cls-11" points="544.868 443.5225 595.1796 540.5617 635.4253 483.4783 544.868 443.5225"/><polygon class="cls-11" points="756.1722 414.9802 635.4253 483.4783 766.2354 529.1456 756.1722 414.9802"/><polygon class="cls-11" points="665.6125 420.6902 635.4253 483.4783 756.1722 414.9802 665.6125 420.6902"/><polygon class="cls-15" points="886.9823 420.6902 937.2959 534.8543 1068.1012 386.4391 886.9823 420.6902"/><polygon class="cls-11" points="987.6072 289.4025 886.9823 386.4391 1068.1012 386.4391 987.6072 289.4025"/><polygon class="cls-11" points="756.1722 414.9802 886.9823 420.6902 886.9823 386.4391 756.1722 414.9802"/><polygon class="cls-11" points="886.9823 386.4391 886.9823 420.6902 1068.1012 386.4391 886.9823 386.4391"/><polygon class="cls-15" points="937.2981 534.8562 826.6097 551.9785 937.2981 609.0606 937.2981 534.8562"/><polygon class="cls-11" points="1400.159 158.1141 1460.5334 323.6529 1722.1489 243.7372 1400.159 158.1141"/><polygon class="cls-11" points="1178.7906 409.274 1178.7906 449.2325 1329.7202 460.6486 1178.7906 409.274"/><polygon class="cls-11" points="1641.6515 123.8651 1722.1479 243.7366 1913.3301 111.3065 1641.6515 123.8651"/><polygon class="cls-11" points="544.8821 551.9785 504.6317 666.1413 605.2567 591.9344 544.8821 551.9785"/><polygon class="cls-11" points="655.568 534.8562 705.8747 563.3933 766.2494 529.1475 655.568 534.8562"/><polygon class="cls-13" points="886.9963 420.6922 766.2494 529.1475 937.31 534.8562 886.9963 420.6922"/><polygon class="cls-27" points="1.5073 678.128 1.5073 705.5278 21.6338 676.9868 1.5073 678.128"/><polygon class="cls-27" points="383.8719 552.7548 162.5046 644.084 504.6188 666.9176 383.8719 552.7548"/><polygon class="cls-27" points="987.6083 290.1808 1068.1023 387.2173 1108.3528 330.1353 987.6083 290.1808"/><polygon class="cls-27" points="1088.2263 301.5942 987.6083 290.1808 1108.3528 330.1353 1088.2263 301.5942"/><polygon class="cls-27" points="1088.2263 301.5942 1108.3528 330.1353 1269.35 204.5577 1088.2263 301.5942"/><polygon class="cls-27" points="1530.9656 78.9762 1400.1579 158.8904 1641.6515 124.642 1530.9656 78.9762"/><polygon class="cls-27" points="1842.8969 73.27 1641.6515 124.642 1913.3301 112.0834 1842.8969 73.27"/><polygon class="cls-28" points="21.6292 676.9868 1.5028 705.5278 61.8751 676.9868 21.6292 676.9868"/><polygon class="cls-27" points="1.5028 705.5278 1.5028 792.2921 92.0623 774.026 1.5028 705.5278"/><polygon class="cls-27" points="595.1761 540.5617 544.8646 551.9765 605.2392 591.9324 595.1761 540.5617"/><polygon class="cls-27" points="635.4219 483.4783 595.1761 540.5617 655.5505 534.8543 635.4219 483.4783"/><polygon class="cls-27" points="655.5505 534.8543 605.2392 591.9324 705.8573 563.3913 655.5505 534.8543"/><polygon class="cls-27" points="635.4219 483.4783 655.5505 534.8543 766.2319 529.1456 635.4219 483.4783"/><polygon class="cls-29" points="756.1688 414.9802 766.2319 529.1456 886.9788 420.6902 756.1688 414.9802"/><polygon class="cls-27" points="544.8646 443.5225 454.3027 546.2678 544.8646 551.9765 544.8646 443.5225"/><polygon class="cls-28" points="162.5 643.3057 61.8751 677.5555 212.8116 740.3463 162.5 643.3057"/><g><polygon class="cls-38" points="575.3179 319.02 545.1329 444.6003 595.4444 336.145 575.3179 319.02"/><polygon class="cls-11" points="595.4444 182.025 575.3179 319.02 726.252 267.6454 595.4444 182.025"/><polygon class="cls-27" points="575.3179 319.02 595.4444 336.145 726.252 267.6454 575.3179 319.02"/><polygon class="cls-27" points="1128.7431 147.7738 1229.3656 176.315 1249.4876 142.0665 1128.7431 147.7738"/><polygon class="cls-11" points="233.2018 410.3492 132.579 478.8488 263.389 484.5561 233.2018 410.3492"/><polygon class="cls-38" points="384.1357 450.3077 454.571 547.3456 545.1329 444.6003 384.1357 450.3077"/><polygon class="cls-38" points="595.4444 336.145 665.8774 421.768 756.4371 416.058 595.4444 336.145"/><polygon class="cls-16" points="726.252 267.6454 887.2471 387.5169 987.8721 290.4804 726.252 267.6454"/><polygon class="cls-23" points="1229.3656 176.315 1088.4901 301.8938 1269.6138 204.8573 1229.3656 176.315"/><polygon class="cls-27" points="1249.4876 142.0665 1229.3656 176.315 1269.6138 204.8573 1249.4876 142.0665"/><polygon class="cls-23" points="1249.4876 142.0665 1269.6138 204.8573 1400.4217 159.19 1249.4876 142.0665"/><polygon class="cls-11" points="92.3306 490.2649 42.0193 541.6395 132.5787 478.8488 92.3306 490.2649"/><polygon class="cls-11" points="343.8863 427.4753 263.3875 484.5561 384.1345 450.3077 343.8863 427.4753"/><polygon class="cls-11" points="343.8875 427.4753 384.1357 450.3077 545.1329 444.6003 343.8875 427.4753"/><polygon class="cls-11" points="343.8875 427.4753 545.1329 444.6003 575.3179 319.02 343.8875 427.4753"/><polygon class="cls-23" points="595.4444 182.025 726.252 267.6454 806.7484 187.7311 595.4444 182.025"/><polygon class="cls-12" points="1.7711 566.7543 21.8975 678.6333 62.1434 678.6333 1.7711 566.7543"/><polygon class="cls-12" points="42.0193 541.6395 1.7711 566.7543 162.7683 644.3835 42.0193 541.6395"/><polygon class="cls-23" points="132.5787 478.8488 42.0193 541.6395 263.3887 484.5561 132.5787 478.8488"/><polygon class="cls-12" points="42.0193 541.6395 162.7683 644.3835 263.3887 484.5561 42.0193 541.6395"/><polygon class="cls-11" points="233.2039 410.3492 263.3911 484.5561 343.8899 427.4753 233.2039 410.3492"/><polygon class="cls-23" points="263.3887 484.5561 162.7683 644.3835 384.1357 553.0543 263.3887 484.5561"/><polygon class="cls-11" points="384.1357 450.3077 384.1357 553.0543 454.571 547.3456 384.1357 450.3077"/><polygon class="cls-23" points="726.252 267.6454 756.4371 416.058 887.2471 387.5169 726.252 267.6454"/><polygon class="cls-11" points="857.0597 153.4827 806.7484 187.7311 987.8721 290.4804 857.0597 153.4827"/><polygon class="cls-11" points="987.8721 290.4804 1088.4901 301.8938 1128.7431 147.7738 987.8721 290.4804"/><polygon class="cls-27" points="1168.9912 73.5696 1128.7431 124.9415 1239.4242 90.6919 1168.9912 73.5696"/><polygon class="cls-11" points="1239.4242 90.6919 1128.7431 124.9415 1249.4876 142.0665 1239.4242 90.6919"/><polygon class="cls-11" points="1128.7431 147.7738 1088.4901 301.8938 1229.3656 176.315 1128.7431 147.7738"/><polygon class="cls-27" points="1239.4242 90.6919 1249.4876 142.0665 1340.0471 73.5696 1239.4242 90.6919"/><polygon class="cls-27" points="1340.0471 73.5696 1400.4217 159.19 1531.2293 79.2757 1340.0471 73.5696"/><polygon class="cls-11" points="726.252 267.6454 595.4444 336.145 756.4371 416.058 726.252 267.6454"/><polygon class="cls-11" points="997.9307 90.6919 1128.7431 147.7738 1128.7431 124.9415 997.9307 90.6919"/><polygon class="cls-11" points="1128.7431 124.9415 1128.7431 147.7738 1249.4876 142.0665 1128.7431 124.9415"/><polygon class="cls-11" points="937.5608 124.9415 987.8721 290.4804 1128.7431 147.7738 937.5608 124.9415"/><polygon class="cls-27" points="1340.0471 73.5696 1249.4876 142.0665 1400.4217 159.19 1340.0471 73.5696"/><polygon class="cls-27" points="1.7711 566.7543 1.7711 679.7746 21.8975 678.6333 1.7711 566.7543"/><polygon class="cls-28" points="384.1357 450.3077 263.3887 484.5561 384.1357 553.0543 384.1357 450.3077"/><polygon class="cls-28" points="917.4343 84.9831 857.0597 153.4827 937.5608 124.9415 917.4343 84.9831"/><polygon class="cls-28" points="917.4343 84.9831 937.5608 124.9415 997.9307 90.6919 917.4343 84.9831"/><polygon class="cls-28" points="806.7484 187.7311 726.252 267.6454 987.8721 290.4804 806.7484 187.7311"/><polygon class="cls-28" points="937.5608 124.9415 857.0597 153.4827 987.8721 290.4804 937.5608 124.9415"/><polygon class="cls-28" points="997.9307 90.6919 937.5608 124.9415 1128.7431 147.7738 997.9307 90.6919"/><polygon class="cls-28" points="997.9307 90.6919 1128.7431 124.9415 1168.9912 73.5696 997.9307 90.6919"/><polygon class="cls-28" points="1.7711 566.7543 62.1434 678.6333 162.7683 644.3835 1.7711 566.7543"/><polygon class="cls-28" points="595.4444 336.145 545.1329 444.6003 665.8774 421.768 595.4444 336.145"/></g><path class="cls-27" d="M1.5035,0V567.3901l40.25-25.1101,50.3101-51.3799,40.25-11.4102,100.6104-68.5h.0098l110.6899,17.1201,231.4302-108.45,20.1299-137,211.3003,5.71,50.3096-34.25,60.3804-68.5,80.4897,5.71,171.0601-17.1199,70.4399,17.1199,100.6201-17.1199,191.1799,5.7,110.6902,45.6699,201.2397-51.3699,70.4402,38.8098V0H1.5035ZM212.8136,313.9501l.0103,.0299-.3501,.1001,.3398-.13Zm-100.6196,119.88l-.0103-.01h.0103v.01Z"/></g></g></svg>