<?xml version="1.0" encoding="UTF-8"?><svg id="Layer_2" xmlns="http://www.w3.org/2000/svg" viewBox="0 0 62.7462 62.7959"><g id="Layer_1-2"><path d="m62.7377,18.0551c-.02.74-.85,3.09-1.55,4.42l-23.5142,40.3208-.99-.45,10.0154-17.0101c.0541-.1167-.0519-.2312-.1774-.2029-7.5605,1.7026-17.6631,1.2537-23.4402-10.8714L9.4006.7329H.2978L0,.04l25.4062-.04,14.713,42.9988c1.3168,2.9968,6.8382,1.5227,7.7835-.1134.2852-.4936,11.475-18.7403,11.475-18.7403-1.2903.9004-2.8391,1.4476-4.5104,1.5214-4.7369.2094-8.8841-3.6247-9.0161-8.3643-.136-4.8831,3.7744-8.8771,8.6265-8.8771,4.76,0,8.47,3.94,8.26,9.63Z"/></g></svg>