<?xml version="1.0" encoding="UTF-8"?><svg id="Layer_2" xmlns="http://www.w3.org/2000/svg" viewBox="0 0 55.095 49.4358"><defs><style>.cls-1{fill:none;stroke:#0c0c0c;stroke-linecap:round;stroke-miterlimit:10;}</style></defs><g id="Layer_1-2"><g><path class="cls-1" d="M8.2485,.5C5.4533,5.8777,3.3344,12.1237,2.0497,18.7724c-.2664,1.3789-.4992,2.798-.477,4.239s.3279,2.9236,.9999,3.9087c2.4783,3.6261,6.1329-.1557,7.9564-2.3947,1.287-1.5803,2.3816-3.3292,3.4036-5.0888,.2024-.3485,2.3288-4.4175,2.8355-2.5777,.0159,.0578,.0083,.1241,.0003,.1858-.092,.7171-.1837,1.434-.2965,2.144-.1362,.8575-.3028,1.7028-.4959,2.5329-2.4064,10.3459-6.03,25.9215-14.1728,27.1859-.3269,.0508-.6838,.0652-.9525-.2327-.4086-.453-.4219-1.4238-.2353-2.1541,1.2542-4.9092,4.0536-9.0622,6.5288-12.241,2.3025-2.9569,8.3685-10.4994,11.4433-12.1235"/><path class="cls-1" d="M20.3764,24.7179c-.5206,1.0014-1.0897,1.8821-1.0882,3.1342-.0004-.2955-.0174,.5062,.1082,.7072,.1222,.1956,.342,.3071,.5596,.3837,.6082,.2142,.5009,.225,1.1156,.0301,1.3568-.4301,1.439-1.6862,2.2563-3.2754"/><path class="cls-1" d="M31.8464,15.345c-.8982,2.0196-4.1366,8.1012-4.9935,10.1386s-1.5198,4.2152-1.4152,6.424"/><path class="cls-1" d="M26.0261,27.5996c.2841-.6298,.4254-1.5319,.9845-1.9378,.1636-.1187,.47-.4795,.647-.5771,.4815-.2655,.6459-.4465,1.1579-.647s1.262-.27,1.7027,.0681c.0488,.0375,.1157,.2466,.1582,.2911,.095,.0996,.0719,.2658,.002,.3844-.1412,.2395-.419,.3568-.6804,.4515-.9702,.3517-1.7254,.6066-2.7459,.7598"/><path class="cls-1" d="M27.2502,26.3464c.3648,1.0617,1.336,2.3136,2.2213,2.6249,.965,.3393,1.5944-.1844,1.5122-.1219-.6652,.5048,2.6839-1.202,3.2452-2.5582"/><path class="cls-1" d="M38.2128,24.8989c-.7688-.102-1.5577-.2032-2.3128-.0264s-1.4807,.6944-1.6763,1.4449c-.0938,.3598-.06,.7417,.0215,1.1045,.1187,.5287,.3778,1.0774,.8698,1.3045,.2168,.1,.4607,.1279,.6995,.1224,1.1331-.026,2.2286-.9018,2.3766-2.0255,.067-.5085-.0637-1.0578-.4202-1.4266s-.9532-.5137-1.4083-.2773c.083,.3996,.6526,.3909,1.0485,.2921,4.0927-1.0211,8.359-1.0493,12.5771-1.0602,1.5586-.004,3.1634,.002,4.6068,.5902"/><path class="cls-1" d="M22.3872,28.0963c-.0409,.2832-.0698,.6083,.1228,.8199,.7877,.8656,4.008-2.4749,4.1349-2.7993"/></g></g></svg>