<?xml version="1.0" encoding="UTF-8"?><svg id="Layer_2" xmlns="http://www.w3.org/2000/svg" viewBox="0 0 85.0148 62.7959"><defs><style>.cls-1{fill:#fff;}</style></defs><g id="Layer_1-2"><g><path class="cls-1" d="m62.7377,18.0551c-.02.74-.85,3.09-1.55,4.42l-23.5142,40.3208-.99-.45,10.0154-17.0101c.0541-.1167-.0519-.2312-.1774-.2029-7.5605,1.7026-17.6631,1.2537-23.4402-10.8714L9.4006.7329H.2978L0,.04l25.4062-.04,14.713,42.9988c1.3168,2.9968,6.8382,1.5227,7.7835-.1134.2852-.4936,11.475-18.7403,11.475-18.7403-1.2903.9004-2.8391,1.4476-4.5104,1.5214-4.7369.2094-8.8841-3.6247-9.0161-8.3643-.136-4.8831,3.7744-8.8771,8.6265-8.8771,4.76,0,8.47,3.94,8.26,9.63Z"/><g><path class="cls-1" d="m64.8468,35.6416h.0088c.1484,0,.2227.0889.2227.2656v9.9531c0,.1826-.0742.2734-.2227.2734h-.0088c-.1484,0-.2227-.0908-.2227-.2734l-.0166-1.7119c-.2627.4561-.6084.8574-1.0361,1.2021-.4277.3457-.8926.6094-1.3945.792s-.9902.2734-1.4639.2734c-.8896,0-1.6826-.2178-2.3789-.6543s-1.2354-1.0127-1.6172-1.7285c-.3828-.7168-.5742-1.4766-.5742-2.2812v-5.8447c0-.1768.0742-.2656.2227-.2656h.0088c.1602,0,.2393.0889.2393.2656v5.8447c0,.8105.1855,1.5352.5566,2.1738s.8691,1.1357,1.4932,1.4893c.625.3535,1.2998.5303,2.0244.5303.6045,0,1.2109-.1543,1.8184-.4619.6074-.3086,1.1094-.7432,1.5068-1.3047.3965-.5625.5947-1.2061.5947-1.9307v-6.3408c0-.1768.0791-.2656.2393-.2656Z"/><path class="cls-1" d="m74.5382,45.7402c.0459.0566.0684.1113.0684.1621,0,.0635-.0225.1162-.0684.1592-.0459.042-.0967.0664-.1543.0723-.0508,0-.0957-.0068-.1318-.0215-.0381-.0137-.085-.0557-.1416-.124l-4.8438-6.3154-2.3447,2.1387v4.0312c0,.1943-.0742.291-.2227.291h-.0088c-.0801,0-.1387-.0273-.1758-.0811-.0371-.0547-.0557-.124-.0557-.21v-12.9912c0-.1768.0771-.2656.2314-.2656h.0088c.1484,0,.2227.0889.2227.2656v8.3271l5.9219-5.417c.0566-.0518.1016-.083.1328-.0947.0312-.0107.0664-.0166.1064-.0166.0576,0,.1113.0225.1631.0684.0508.0459.0771.1055.0771.1797,0,.0566-.0264.1113-.0771.1621l-3.6377,3.2949,4.9297,6.3848Z"/><path class="cls-1" d="m74.9122,38.2178c.4766-.8271,1.1221-1.4824,1.9385-1.9639.8154-.4824,1.709-.7236,2.6787-.7236.9814,0,1.8926.2422,2.7344.7275s1.5107,1.1396,2.0068,1.9639.7441,1.7246.7441,2.7002c0,.9697-.248,1.873-.7441,2.709s-1.1641,1.5-2.0029,1.9941c-.8389.4932-1.7451.7402-2.7217.7402-.9639,0-1.8564-.2471-2.6777-.7402-.8223-.4941-1.4727-1.1582-1.9521-1.9941-.4785-.8359-.7188-1.7393-.7188-2.709,0-.9756.2383-1.877.7148-2.7041Zm.4111,5.1777c.4365.7646,1.0283,1.3721,1.7754,1.8223.7471.4512,1.5635.6768,2.4473.6768.9248,0,1.7695-.2256,2.5332-.6768.7646-.4502,1.3672-1.0566,1.8066-1.8184.4385-.7617.6582-1.5879.6582-2.4775s-.2266-1.7119-.6797-2.4648c-.4541-.7529-1.0645-1.3506-1.832-1.793s-1.6016-.6631-2.5029-.6631c-.8848,0-1.6992.2197-2.4434.6592s-1.334,1.0352-1.7676,1.7881c-.4336.7539-.6504,1.5781-.6504,2.4736,0,.8848.2188,1.709.6553,2.4736Z"/></g></g></g></svg>