<?xml version="1.0" encoding="UTF-8"?><svg id="Layer_2" xmlns="http://www.w3.org/2000/svg" xmlns:xlink="http://www.w3.org/1999/xlink" viewBox="0 0 414 897.7604"><defs><style>.cls-1{fill:url(#linear-gradient);opacity:.37;}.cls-2,.cls-3{fill:#9fa2af;}.cls-4,.cls-5,.cls-6,.cls-7{fill:#111838;}.cls-8,.cls-9{fill:#10193a;}.cls-10,.cls-11,.cls-12,.cls-13{fill:#1f2644;}.cls-14,.cls-15,.cls-16{fill:#131a3a;}.cls-17,.cls-18,.cls-19,.cls-20,.cls-21{fill:#152144;}.cls-22{fill:#070707;}.cls-23,.cls-24,.cls-25{fill:#0f1637;}.cls-26,.cls-27,.cls-28,.cls-29,.cls-30{fill:#3f455f;}.cls-31,.cls-32,.cls-33{fill:#272d4b;}.cls-34,.cls-35,.cls-36,.cls-37{fill:#575c73;}.cls-18,.cls-21,.cls-27,.cls-25,.cls-9,.cls-7,.cls-32,.cls-36{stroke:#5f647a;}.cls-19{stroke:#4f546d;}.cls-20{stroke:#2f3552;}.cls-15,.cls-5,.cls-24{stroke:#111838;}.cls-38{fill:url(#linear-gradient-2);}.cls-39{fill:#e7e8eb;}.cls-39,.cls-40,.cls-41,.cls-42,.cls-43,.cls-44,.cls-45,.cls-46,.cls-47,.cls-3,.cls-48,.cls-21,.cls-11,.cls-27,.cls-28,.cls-25,.cls-6,.cls-12,.cls-13,.cls-29,.cls-16,.cls-9,.cls-7,.cls-30,.cls-49,.cls-50,.cls-35,.cls-32,.cls-36,.cls-51,.cls-33,.cls-37{stroke-width:.5px;}.cls-39,.cls-40,.cls-41,.cls-42,.cls-43,.cls-44,.cls-45,.cls-46,.cls-47,.cls-3,.cls-48,.cls-28,.cls-6,.cls-13,.cls-16,.cls-49,.cls-50,.cls-35,.cls-51,.cls-33{stroke:#b0b2bd;}.cls-40{fill:#d0d1d8;}.cls-41{fill:#cfd0d7;}.cls-42{fill:#b0b2bd;}.cls-43{fill:#9093a2;}.cls-44{fill:#808395;}.cls-45{fill:#fdfbfd;}.cls-46{fill:#b7b9c3;}.cls-47{fill:#a0a2b0;}.cls-48{fill:#f0f1f3;}.cls-11,.cls-29{stroke:#9093a2;}.cls-12{stroke:#c0c2ca;}.cls-30{stroke:#3f455f;}.cls-49{fill:#c0c2ca;}.cls-50{fill:#e0e1e5;}.cls-51{fill:#4f546d;}.cls-37{stroke:#808395;}</style><linearGradient id="linear-gradient" x1="700.6362" y1="-236.4166" x2="1112.873" y2="-236.4166" gradientTransform="translate(1114.6362 212.6381) rotate(-180)" gradientUnits="userSpaceOnUse"><stop offset=".436" stop-color="#0f1637" stop-opacity=".09"/><stop offset=".6267" stop-color="#0f1637" stop-opacity=".3299"/><stop offset=".9803" stop-color="#0f1637" stop-opacity=".961"/><stop offset="1" stop-color="#0f1637"/></linearGradient><linearGradient id="linear-gradient-2" x1="206.704" y1="814.4625" x2="206.0102" y2="913.0835" gradientUnits="userSpaceOnUse"><stop offset=".0975" stop-color="#fff" stop-opacity="0"/><stop offset=".2052" stop-color="#fff" stop-opacity=".0143"/><stop offset=".3041" stop-color="#fff" stop-opacity=".058"/><stop offset=".3998" stop-color="#fff" stop-opacity=".1313"/><stop offset=".4933" stop-color="#fff" stop-opacity=".2344"/><stop offset=".5854" stop-color="#fff" stop-opacity=".3673"/><stop offset=".6763" stop-color="#fff" stop-opacity=".5301"/><stop offset=".7646" stop-color="#fff" stop-opacity=".7192"/><stop offset=".838" stop-color="#fff" stop-opacity=".9"/></linearGradient></defs><g id="Layer_1-2"><g><polygon class="cls-22" points=".6783 563.1746 .6783 585.8108 5.018 562.2317 .6783 563.1746"/><polygon class="cls-23" points=".6783 94.4255 .6783 187.8002 11.5266 142.5265 .6783 94.4255"/><polygon class="cls-23" points=".6783 375.4868 .6783 469.8032 9.3568 449.0547 .6783 375.4868"/><polygon class="cls-45" points=".6783 845.1808 .6783 897.053 .6783 897.053 .6783 845.1808"/><polygon class="cls-23" points=".6783 1.0541 .6783 94.4255 18.0353 67.0741 .6783 1.0541"/><polygon class="cls-23" points=".6783 375.4868 9.3568 449.0547 20.2052 406.6117 .6783 375.4868"/><polygon class="cls-23" points=".6783 94.4255 11.5266 142.5265 26.7143 114.2322 .6783 94.4255"/><polygon class="cls-23" points=".6783 375.4868 20.2052 406.6117 24.5444 359.4546 .6783 375.4868"/><polygon class="cls-23" points="18.0353 67.0741 .6783 94.4255 26.7143 114.2322 18.0353 67.0741"/><polygon class="cls-23" points=".6783 282.1144 .6783 375.4868 24.5444 359.4546 .6783 282.1144"/><polygon class="cls-45" points=".6783 897.053 .6783 897.053 .6783 750.8644 .6783 897.053"/><polygon class="cls-44" points=".6783 750.8644 .6783 845.1808 35.3933 831.0321 .6783 750.8644"/><polygon class="cls-23" points=".6783 187.8002 .6783 282.1144 44.0718 227.4115 .6783 187.8002"/><polygon class="cls-23" points=".6783 282.1144 39.7321 269.8545 44.0718 227.4115 .6783 282.1144"/><polygon class="cls-23" points=".6783 1.0541 18.0353 67.0741 43.638 1.0541 .6783 1.0541"/><polygon class="cls-42" points="35.3933 831.0321 .6783 897.053 43.638 897.053 35.3933 831.0321"/><polygon class="cls-46" points=".6783 845.1808 .6783 897.053 35.3933 831.0321 .6783 845.1808"/><polygon class="cls-23" points="44.0718 227.4115 39.7321 269.8545 46.2417 260.4231 44.0718 227.4115"/><polygon class="cls-23" points=".6783 282.1144 24.5444 359.4546 39.7321 269.8545 .6783 282.1144"/><polygon class="cls-23" points="11.5266 142.5265 .6783 187.8002 44.0718 227.4115 11.5266 142.5265"/><polygon class="cls-23" points="52.7503 5.7682 43.638 1.0541 52.7503 15.2007 52.7503 5.7682"/><polygon class="cls-13" points="20.2052 642.4004 .6783 750.8644 50.5805 675.4109 20.2052 642.4004"/><polygon class="cls-4" points="39.7321 269.8545 24.5444 359.4546 50.5805 340.5895 39.7321 269.8545"/><polygon class="cls-46" points=".6783 750.8644 35.3933 831.0321 54.9197 774.4436 .6783 750.8644"/><polygon class="cls-16" points="46.2417 614.1062 20.2052 642.4004 50.5805 675.4109 46.2417 614.1062"/><polygon class="cls-23" points="43.638 1.0541 18.0353 67.0741 52.7503 15.2007 43.638 1.0541"/><polygon class="cls-44" points="35.3933 831.0321 43.638 897.053 54.9197 835.7483 35.3933 831.0321"/><polygon class="cls-35" points="35.3933 831.0321 54.9197 835.7483 61.4288 802.7367 35.3933 831.0321"/><polygon class="cls-40" points="54.9197 774.4436 35.3933 831.0321 61.4288 802.7367 54.9197 774.4436"/><polygon class="cls-28" points=".6783 750.8644 54.9197 774.4436 59.259 698.99 .6783 750.8644"/><polygon class="cls-23" points="26.7143 114.2322 11.5266 142.5265 44.0718 227.4115 26.7143 114.2322"/><polygon class="cls-23" points="26.7143 114.2322 44.0718 227.4115 63.5987 147.2428 26.7143 114.2322"/><polygon class="cls-23" points="54.9197 114.2322 26.7143 114.2322 63.5987 147.2428 54.9197 114.2322"/><polygon class="cls-23" points="18.0353 67.0741 26.7143 114.2322 54.9197 114.2322 18.0353 67.0741"/><polygon class="cls-23" points="52.7503 15.2007 18.0353 67.0741 54.9197 114.2322 52.7503 15.2007"/><polygon class="cls-23" points="63.5987 147.2428 44.0718 227.4115 70.1073 213.2637 63.5987 147.2428"/><polygon class="cls-35" points="59.259 698.99 54.9197 774.4436 67.938 708.4225 59.259 698.99"/><polygon class="cls-23" points="44.0718 227.4115 46.2417 260.4231 70.1073 213.2637 44.0718 227.4115"/><polygon class="cls-28" points="50.5805 675.4109 59.259 698.99 78.7869 670.6947 50.5805 675.4109"/><polygon class="cls-35" points="59.259 698.99 67.938 708.4225 78.7869 670.6947 59.259 698.99"/><polygon class="cls-23" points="63.5987 147.2428 70.1073 213.2637 78.7869 170.823 63.5987 147.2428"/><polygon class="cls-28" points="46.2417 614.1062 50.5805 675.4109 78.7869 670.6947 46.2417 614.1062"/><polygon class="cls-28" points="61.4288 802.7367 54.9197 835.7483 85.2955 821.6006 61.4288 802.7367"/><polygon class="cls-47" points="54.9197 835.7483 43.638 897.053 86.5968 897.053 54.9197 835.7483"/><polygon class="cls-43" points="85.2955 821.6006 54.9197 835.7483 86.5968 897.053 85.2955 821.6006"/><polygon class="cls-23" points="52.7503 5.7682 52.7503 15.2007 86.5968 1.0541 52.7503 5.7682"/><polygon class="cls-23" points="52.7503 15.2007 54.9197 114.2322 102.6525 67.0741 52.7503 15.2007"/><polygon class="cls-23" points="86.5968 1.0541 52.7503 15.2007 102.6525 67.0741 86.5968 1.0541"/><polygon class="cls-49" points="54.9197 774.4436 61.4288 802.7367 102.6525 783.8739 54.9197 774.4436"/><polygon class="cls-3" points="61.4288 802.7367 85.2955 821.6006 102.6525 783.8739 61.4288 802.7367"/><polygon class="cls-44" points="67.938 708.4225 54.9197 774.4436 102.6525 783.8739 67.938 708.4225"/><polygon class="cls-23" points="54.9197 114.2322 63.5987 147.2428 102.6525 67.0741 54.9197 114.2322"/><polygon class="cls-35" points="78.7869 670.6947 67.938 708.4225 109.1617 722.5691 78.7869 670.6947"/><polygon class="cls-28" points="67.938 708.4225 102.6525 783.8739 109.1617 722.5691 67.938 708.4225"/><polygon class="cls-23" points="83.1256 458.485 35.3933 533.9364 109.1617 552.8003 83.1256 458.485"/><polygon class="cls-23" points="70.1073 213.2637 46.2417 260.4231 74.4471 354.7383 70.1073 213.2637"/><polygon class="cls-3" points="85.2955 821.6006 86.5968 897.053 111.331 840.4645 85.2955 821.6006"/><polygon class="cls-35" points="102.6525 783.8739 85.2955 821.6006 111.331 840.4645 102.6525 783.8739"/><polygon class="cls-13" points="46.2417 614.1062 78.7869 670.6947 109.1617 552.8003 46.2417 614.1062"/><polygon class="cls-23" points="63.5987 147.2428 78.7869 170.823 102.6525 67.0741 63.5987 147.2428"/><polygon class="cls-31" points="98.3133 453.7688 109.1617 552.8003 117.8407 458.485 98.3133 453.7688"/><polygon class="cls-23" points="86.5968 1.0541 106.9918 48.2113 129.9904 1.0541 86.5968 1.0541"/><polygon class="cls-46" points="111.331 840.4645 86.5968 897.053 129.9904 897.053 111.331 840.4645"/><polygon class="cls-23" points="102.6525 67.0741 78.7869 170.823 128.6891 151.9601 102.6525 67.0741"/><polygon class="cls-8" points="117.8407 458.485 109.1617 552.8003 130.8589 491.4945 117.8407 458.485"/><polygon class="cls-31" points="124.3493 265.1382 117.8407 368.886 128.6891 279.2859 124.3493 265.1382"/><polygon class="cls-17" points="130.8589 491.4945 109.1617 552.8003 133.0278 515.0735 130.8589 491.4945"/><polygon class="cls-23" points="128.6891 449.0547 117.8407 458.485 130.8589 491.4945 128.6891 449.0547"/><polygon class="cls-23" points="117.8407 368.886 117.8407 458.485 128.6891 449.0547 117.8407 368.886"/><polygon class="cls-23" points="43.638 1.0541 52.7503 5.7682 86.5968 1.0541 43.638 1.0541"/><polygon class="cls-31" points="141.7073 623.5365 109.1617 722.5691 143.8762 637.6852 141.7073 623.5365"/><polygon class="cls-28" points="78.7869 670.6947 109.1617 722.5691 141.7073 623.5365 78.7869 670.6947"/><polygon class="cls-23" points="137.3671 401.8954 128.6891 449.0547 141.7073 444.3395 137.3671 401.8954"/><polygon class="cls-20" points="133.0278 515.0735 109.1617 552.8003 146.0461 571.6642 133.0278 515.0735"/><polygon class="cls-18" points="109.1617 552.8003 141.7073 623.5365 146.0461 571.6642 109.1617 552.8003"/><polygon class="cls-31" points="117.8407 368.886 137.3671 401.8954 143.8762 350.0232 117.8407 368.886"/><polygon class="cls-3" points="109.1617 722.5691 102.6525 783.8739 148.2155 755.5807 109.1617 722.5691"/><polygon class="cls-31" points="146.0461 727.2853 109.1617 722.5691 148.2155 755.5807 146.0461 727.2853"/><polygon class="cls-23" points="129.9904 1.0541 106.9918 48.2113 146.0461 24.6321 129.9904 1.0541"/><polygon class="cls-31" points="128.6891 449.0547 130.8589 491.4945 141.7073 444.3395 128.6891 449.0547"/><polygon class="cls-23" points="141.7073 444.3395 130.8589 491.4945 152.5547 467.9153 141.7073 444.3395"/><polygon class="cls-3" points="102.6525 783.8739 111.331 840.4645 148.2155 755.5807 102.6525 783.8739"/><polygon class="cls-2" points="143.8762 637.6852 109.1617 722.5691 146.0461 727.2853 143.8762 637.6852"/><polygon class="cls-4" points="128.6891 151.9601 124.3493 265.1382 156.8945 222.6952 128.6891 151.9601"/><polygon class="cls-31" points="141.7073 623.5365 143.8762 637.6852 159.0643 609.3898 141.7073 623.5365"/><polygon class="cls-34" points="146.0461 571.6642 141.7073 623.5365 159.0643 609.3898 146.0461 571.6642"/><polygon class="cls-23" points="124.3493 265.1382 128.6891 279.2859 156.8945 222.6952 124.3493 265.1382"/><polygon class="cls-31" points="130.8589 491.4945 133.0278 515.0735 152.5547 467.9153 130.8589 491.4945"/><polygon class="cls-23" points="106.9918 48.2113 102.6525 67.0741 128.6891 151.9601 106.9918 48.2113"/><polygon class="cls-23" points="106.9918 48.2113 128.6891 151.9601 146.0461 24.6321 106.9918 48.2113"/><polygon class="cls-23" points="137.3671 401.8954 141.7073 444.3395 165.573 439.6233 137.3671 401.8954"/><polygon class="cls-23" points="141.7073 444.3395 152.5547 467.9153 165.573 439.6233 141.7073 444.3395"/><polygon class="cls-8" points="152.5141 467.8087 163.3459 472.702 165.6299 439.7301 152.5141 467.8087"/><polygon class="cls-26" points="146.0461 727.2853 148.2155 755.5807 163.4031 722.5691 146.0461 727.2853"/><polygon class="cls-34" points="143.8762 637.6852 146.0461 727.2853 163.4031 722.5691 143.8762 637.6852"/><polygon class="cls-28" points="159.0643 609.3898 143.8762 637.6852 174.2515 665.9806 159.0643 609.3898"/><polygon class="cls-35" points="143.8762 637.6852 163.4031 722.5691 174.2515 665.9806 143.8762 637.6852"/><polygon class="cls-41" points="148.2155 755.5807 111.331 840.4645 174.2515 793.3064 148.2155 755.5807"/><polygon class="cls-23" points="129.9904 1.0541 146.0461 24.6321 172.9497 1.0541 129.9904 1.0541"/><polygon class="cls-8" points="143.8762 350.0232 137.3671 401.8954 163.4031 345.3058 143.8762 350.0232"/><polygon class="cls-34" points="152.5547 467.9153 133.0278 515.0735 163.4031 472.6316 152.5547 467.9153"/><polygon class="cls-32" points="165.573 439.6233 163.4031 472.6316 178.5908 458.485 165.573 439.6233"/><polygon class="cls-44" points="174.2515 665.9806 163.4031 722.5691 178.5908 684.8434 174.2515 665.9806"/><polygon class="cls-3" points="111.331 840.4645 129.9904 897.053 174.2515 793.3064 111.331 840.4645"/><polygon class="cls-19" points="133.0278 515.0735 146.0461 571.6642 163.4031 472.6316 133.0278 515.0735"/><polygon class="cls-40" points="129.9904 897.053 172.9497 897.053 174.2515 793.3064 129.9904 897.053"/><polygon class="cls-3" points="163.4031 722.5691 148.2155 755.5807 174.2515 793.3064 163.4031 722.5691"/><polygon class="cls-23" points="146.0461 24.6321 174.2515 156.6742 185.0999 128.38 146.0461 24.6321"/><polygon class="cls-35" points="163.4031 472.6316 146.0461 571.6642 185.0999 543.3689 163.4031 472.6316"/><polygon class="cls-30" points="146.0461 571.6642 182.931 590.527 185.0999 543.3689 146.0461 571.6642"/><polygon class="cls-28" points="146.0461 571.6642 159.0643 609.3898 182.931 590.527 146.0461 571.6642"/><polygon class="cls-51" points="159.0643 609.3898 174.2515 665.9806 182.931 590.527 159.0643 609.3898"/><polygon class="cls-23" points="172.9497 1.0541 146.0461 24.6321 198.1182 71.7892 172.9497 1.0541"/><polygon class="cls-23" points="146.0461 24.6321 185.0999 128.38 198.1182 71.7892 146.0461 24.6321"/><polygon class="cls-27" points="178.5908 458.485 163.4031 472.6316 185.0999 543.3689 178.5908 458.485"/><polygon class="cls-3" points="178.5908 684.8434 163.4031 722.5691 200.288 727.2853 178.5908 684.8434"/><polygon class="cls-25" points="163.4031 345.3058 165.573 439.6233 191.609 350.0232 163.4031 345.3058"/><polygon class="cls-21" points="178.5908 458.485 185.0999 543.3689 202.4579 505.6432 178.5908 458.485"/><polygon class="cls-33" points="185.0999 543.3689 202.4579 515.0735 202.4579 505.6432 185.0999 543.3689"/><polygon class="cls-35" points="174.2515 665.9806 178.5908 684.8434 202.4579 670.6947 174.2515 665.9806"/><polygon class="cls-46" points="163.4031 722.5691 174.5707 795.6645 201.3734 727.4426 163.4031 722.5691"/><polygon class="cls-33" points="178.5908 684.8434 200.288 727.2853 202.4579 670.6947 178.5908 684.8434"/><polygon class="cls-3" points="174.2515 795.861 197.7565 800.9703 202.4579 724.3377 174.2515 795.861"/><polygon class="cls-28" points="182.931 590.527 174.2515 665.9806 200.288 599.9574 182.931 590.527"/><polygon class="cls-39" points="174.2515 793.3064 172.9497 897.053 195.9483 798.0226 174.2515 793.3064"/><polygon class="cls-32" points="165.573 439.6233 178.5908 458.485 202.4579 444.3395 165.573 439.6233"/><polygon class="cls-9" points="191.609 350.0232 165.573 439.6233 202.4579 444.3395 191.609 350.0232"/><polygon class="cls-35" points="200.288 599.9574 174.2515 665.9806 202.4579 670.6947 200.288 599.9574"/><polygon class="cls-33" points="185.0999 543.3689 182.931 590.527 200.288 599.9574 185.0999 543.3689"/><polygon class="cls-41" points="202.4579 670.6947 200.288 727.2853 208.9665 722.5691 202.4579 670.6947"/><polygon class="cls-43" points="200.288 727.2853 195.9483 798.0226 215.4752 765.011 200.288 727.2853"/><polygon class="cls-50" points="195.9483 798.0226 172.9497 897.053 216.3432 897.053 195.9483 798.0226"/><polygon class="cls-49" points="215.4752 765.011 195.9483 798.0226 215.4752 793.3064 215.4752 765.011"/><polygon class="cls-3" points="208.9665 722.5691 200.288 727.2853 215.4752 765.011 208.9665 722.5691"/><polygon class="cls-35" points="200.288 599.9574 202.4579 670.6947 211.1364 599.9574 200.288 599.9574"/><polygon class="cls-30" points="202.4579 515.0735 200.288 599.9574 211.1364 599.9574 202.4579 515.0735"/><polygon class="cls-28" points="185.0999 543.3689 200.288 599.9574 202.4579 515.0735 185.0999 543.3689"/><polygon class="cls-28" points="202.4579 670.6947 208.9665 722.5691 230.6628 665.9806 202.4579 670.6947"/><polygon class="cls-28" points="211.1364 599.9574 202.4579 670.6947 230.6628 665.9806 211.1364 599.9574"/><polygon class="cls-40" points="215.4752 793.3064 195.9483 798.0226 216.3432 897.053 215.4752 793.3064"/><polygon class="cls-33" points="202.4579 505.6432 202.4579 515.0735 235.0021 529.2223 202.4579 505.6432"/><polygon class="cls-37" points="202.4579 515.0735 211.1364 599.9574 235.0021 529.2223 202.4579 515.0735"/><polygon class="cls-23" points="213.3063 241.5602 230.6628 321.7267 239.3418 274.5686 213.3063 241.5602"/><polygon class="cls-23" points="235.0021 250.9894 213.3063 241.5602 239.3418 274.5686 235.0021 250.9894"/><polygon class="cls-28" points="235.0021 529.2223 211.1364 599.9574 239.3418 548.0851 235.0021 529.2223"/><polygon class="cls-23" points="172.9497 1.0541 204.6268 10.4856 216.3432 1.0541 172.9497 1.0541"/><polygon class="cls-3" points="215.4752 765.011 215.4752 793.3064 248.0204 783.8739 215.4752 765.011"/><polygon class="cls-33" points="208.9665 722.5691 215.4752 765.011 248.0204 741.432 208.9665 722.5691"/><polygon class="cls-41" points="248.0204 741.432 215.4752 765.011 248.0204 783.8739 248.0204 741.432"/><polygon class="cls-3" points="230.6628 665.9806 208.9665 722.5691 248.0204 741.432 230.6628 665.9806"/><polygon class="cls-36" points="202.4579 444.3395 202.4579 505.6432 235.0021 529.2223 202.4579 444.3395"/><polygon class="cls-25" points="191.609 350.0232 202.4579 444.3395 230.6628 321.7267 191.609 350.0232"/><polygon class="cls-28" points="235.0021 529.2223 239.3418 548.0851 250.1902 515.0735 235.0021 529.2223"/><polygon class="cls-17" points="230.6628 321.7267 254.53 373.6011 254.53 340.5895 230.6628 321.7267"/><polygon class="cls-11" points="230.6628 321.7267 202.4579 444.3395 254.53 373.6011 230.6628 321.7267"/><polygon class="cls-50" points="258.8687 864.0437 216.3432 897.053 259.3025 897.053 258.8687 864.0437"/><polygon class="cls-48" points="215.4752 793.3064 216.3432 897.053 258.8687 864.0437 215.4752 793.3064"/><polygon class="cls-40" points="258.8687 812.1692 215.4752 793.3064 258.8687 864.0437 258.8687 812.1692"/><polygon class="cls-50" points="248.0204 783.8739 215.4752 793.3064 258.8687 812.1692 248.0204 783.8739"/><polygon class="cls-28" points="250.1902 515.0735 239.3418 548.0851 258.8687 552.8003 250.1902 515.0735"/><polygon class="cls-33" points="256.6989 519.7897 250.1902 515.0735 258.8687 552.8003 256.6989 519.7897"/><polygon class="cls-23" points="239.3418 274.5686 230.6628 321.7267 254.53 340.5895 239.3418 274.5686"/><polygon class="cls-33" points="202.4579 444.3395 235.0021 529.2223 250.1902 515.0735 202.4579 444.3395"/><polygon class="cls-3" points="211.1364 599.9574 230.6628 665.9806 239.3418 548.0851 211.1364 599.9574"/><polygon class="cls-23" points="243.6816 123.6636 265.3783 147.2428 269.7171 118.9485 243.6816 123.6636"/><polygon class="cls-25" points="202.4579 444.3395 250.1902 515.0735 254.53 373.6011 202.4579 444.3395"/><polygon class="cls-3" points="239.3418 548.0851 230.6628 665.9806 274.0569 590.527 239.3418 548.0851"/><polygon class="cls-3" points="258.8687 552.8003 239.3418 548.0851 274.0569 590.527 258.8687 552.8003"/><polygon class="cls-32" points="254.53 373.6011 250.1902 515.0735 274.0569 416.0441 254.53 373.6011"/><polygon class="cls-50" points="258.8687 812.1692 258.8687 864.0437 271.887 859.3273 258.8687 812.1692"/><polygon class="cls-50" points="258.8687 864.0437 259.3025 897.053 271.887 859.3273 258.8687 864.0437"/><polygon class="cls-44" points="274.0569 590.527 230.6628 665.9806 287.0742 628.2527 274.0569 590.527"/><polygon class="cls-32" points="254.53 373.6011 274.0569 416.0441 287.0742 383.0325 254.53 373.6011"/><polygon class="cls-35" points="250.1902 515.0735 256.6989 519.7897 274.0569 416.0441 250.1902 515.0735"/><polygon class="cls-41" points="230.6628 665.9806 248.0204 741.432 287.0742 628.2527 230.6628 665.9806"/><polygon class="cls-23" points="235.0021 250.9894 239.3418 274.5686 274.0569 170.823 235.0021 250.9894"/><polygon class="cls-3" points="248.0204 741.432 248.0204 783.8739 258.8687 812.1692 248.0204 741.432"/><polygon class="cls-46" points="271.887 859.3273 259.3025 897.053 302.6961 897.053 271.887 859.3273"/><polygon class="cls-28" points="256.6989 519.7897 258.8687 552.8003 304.4322 486.7804 256.6989 519.7897"/><polygon class="cls-28" points="258.8687 552.8003 274.0569 590.527 304.4322 486.7804 258.8687 552.8003"/><polygon class="cls-28" points="274.0569 416.0441 256.6989 519.7897 304.4322 486.7804 274.0569 416.0441"/><polygon class="cls-41" points="287.0742 628.2527 248.0204 741.432 293.5838 637.6852 287.0742 628.2527"/><polygon class="cls-17" points="239.3418 274.5686 254.53 340.5895 315.2805 269.8545 239.3418 274.5686"/><polygon class="cls-14" points="274.0569 170.823 239.3418 274.5686 315.2805 269.8545 274.0569 170.823"/><polygon class="cls-14" points="254.53 340.5895 287.0742 383.0325 315.2805 269.8545 254.53 340.5895"/><polygon class="cls-46" points="258.8687 812.1692 271.887 859.3273 321.7892 798.0226 258.8687 812.1692"/><polygon class="cls-48" points="271.887 859.3273 319.6193 873.474 321.7892 798.0226 271.887 859.3273"/><polygon class="cls-41" points="248.0204 741.432 258.8687 812.1692 321.7892 798.0226 248.0204 741.432"/><polygon class="cls-50" points="271.887 859.3273 302.6961 897.053 319.6193 873.474 271.887 859.3273"/><polygon class="cls-28" points="287.0742 383.0325 274.0569 416.0441 304.4322 486.7804 287.0742 383.0325"/><polygon class="cls-3" points="274.0569 590.527 287.0742 628.2527 330.4677 599.9574 274.0569 590.527"/><polygon class="cls-41" points="287.0742 628.2527 293.5838 637.6852 330.4677 599.9574 287.0742 628.2527"/><polygon class="cls-35" points="293.5838 637.6852 330.4677 623.5365 330.4677 599.9574 293.5838 637.6852"/><polygon class="cls-46" points="293.5838 637.6852 248.0204 741.432 321.7892 798.0226 293.5838 637.6852"/><polygon class="cls-35" points="304.4322 486.7804 330.4677 599.9574 334.8075 529.2223 304.4322 486.7804"/><polygon class="cls-3" points="304.4322 486.7804 274.0569 590.527 330.4677 599.9574 304.4322 486.7804"/><polygon class="cls-40" points="321.7892 798.0226 319.6193 873.474 330.4677 798.0226 321.7892 798.0226"/><polygon class="cls-10" points="302.2623 133.095 274.0569 170.823 315.2805 269.8545 302.2623 133.095"/><polygon class="cls-44" points="334.8075 529.2223 330.4677 599.9574 347.8257 581.0946 334.8075 529.2223"/><polygon class="cls-46" points="319.6193 873.474 302.6961 897.053 345.6558 897.053 319.6193 873.474"/><polygon class="cls-14" points="330.4677 67.0741 302.2623 133.095 354.3344 104.8008 330.4677 67.0741"/><polygon class="cls-28" points="330.4677 599.9574 330.4677 623.5365 347.8257 581.0946 330.4677 599.9574"/><polygon class="cls-43" points="330.4677 623.5365 321.7892 798.0226 358.6731 755.5807 330.4677 623.5365"/><polygon class="cls-41" points="321.7892 798.0226 330.4677 798.0226 358.6731 755.5807 321.7892 798.0226"/><polygon class="cls-33" points="304.4322 486.7804 334.8075 529.2223 358.6731 467.9153 304.4322 486.7804"/><polygon class="cls-35" points="287.0742 383.0325 304.4322 486.7804 358.6731 467.9153 287.0742 383.0325"/><polygon class="cls-50" points="330.4677 798.0226 319.6193 873.474 345.6558 897.053 330.4677 798.0226"/><polygon class="cls-41" points="293.5838 637.6852 321.7892 798.0226 330.4677 623.5365 293.5838 637.6852"/><polygon class="cls-50" points="358.6731 755.5807 330.4677 798.0226 369.5215 807.4529 358.6731 755.5807"/><polygon class="cls-41" points="347.8257 581.0946 330.4677 623.5365 371.6914 642.4004 347.8257 581.0946"/><polygon class="cls-41" points="358.6731 467.9153 334.8075 529.2223 373.8612 510.3573 358.6731 467.9153"/><polygon class="cls-48" points="330.4677 798.0226 345.6558 897.053 369.5215 807.4529 330.4677 798.0226"/><polygon class="cls-39" points="330.4677 623.5365 358.6731 755.5807 376.0312 665.9806 330.4677 623.5365"/><polygon class="cls-41" points="371.6914 642.4004 330.4677 623.5365 376.0312 665.9806 371.6914 642.4004"/><polygon class="cls-39" points="334.8075 529.2223 347.8257 581.0946 373.8612 510.3573 334.8075 529.2223"/><polygon class="cls-28" points="287.0742 383.0325 358.6731 467.9153 373.8612 425.4745 287.0742 383.0325"/><polygon class="cls-39" points="347.8257 581.0946 371.6914 642.4004 378.201 566.948 347.8257 581.0946"/><polygon class="cls-44" points="373.8612 510.3573 347.8257 581.0946 378.201 566.948 373.8612 510.3573"/><polygon class="cls-11" points="315.2805 269.8545 287.0742 383.0325 373.8612 425.4745 315.2805 269.8545"/><polygon class="cls-40" points="369.5215 807.4529 345.6558 897.053 389.0494 840.4645 369.5215 807.4529"/><polygon class="cls-46" points="380.3699 816.8854 369.5215 807.4529 389.0494 840.4645 380.3699 816.8854"/><polygon class="cls-12" points="315.2805 269.8545 373.8612 425.4745 391.2183 359.4546 315.2805 269.8545"/><polygon class="cls-48" points="389.0494 840.4645 345.6558 897.053 389.0494 897.053 389.0494 840.4645"/><polygon class="cls-31" points="371.6914 203.8323 315.2805 269.8545 393.3882 250.9894 371.6914 203.8323"/><polygon class="cls-48" points="376.0312 665.9806 358.6731 755.5807 393.3882 732.0005 376.0312 665.9806"/><polygon class="cls-23" points="24.5439 359.4546 28.8832 397.1803 50.58 340.5895 24.5439 359.4546"/><polygon class="cls-4" points="50.5805 340.5895 28.8837 397.1803 57.0896 401.8954 50.5805 340.5895"/><polygon class="cls-23" points="46.2433 260.4524 37.5625 269.8545 50.5821 340.6189 46.2433 260.4524"/><polygon class="cls-26" points="98.3133 453.7688 83.1256 458.485 109.1617 552.8003 98.3133 453.7688"/><polygon class="cls-31" points="83.1256 373.6011 98.3133 453.7688 117.8407 368.886 83.1256 373.6011"/><polygon class="cls-8" points="117.8407 368.886 98.3133 453.7688 117.8407 458.485 117.8407 368.886"/><polygon class="cls-31" points="128.6891 279.2859 143.8762 350.0232 163.4031 345.3058 128.6891 279.2859"/><polygon class="cls-10" points="156.8945 222.6952 191.609 321.7267 213.3063 241.5602 156.8945 222.6952"/><polygon class="cls-14" points="265.3783 147.2428 235.0021 250.9894 274.0569 170.823 265.3783 147.2428"/><polygon class="cls-23" points="269.7171 118.9485 265.3783 147.2428 274.0569 170.823 269.7171 118.9485"/><polygon class="cls-14" points="269.7171 118.9485 274.0569 170.823 302.2623 133.095 269.7171 118.9485"/><polygon class="cls-10" points="13.696 562.2317 20.2052 642.4004 46.2417 614.1062 13.696 562.2317"/><polygon class="cls-6" points=".6783 657.4909 .6783 750.8644 20.2052 642.4004 .6783 657.4909"/><polygon class="cls-4" points="20.2052 406.6117 9.3568 449.0547 28.8837 397.1803 20.2052 406.6117"/><polygon class="cls-4" points="74.4469 354.7383 57.0893 401.8954 83.1254 373.6011 74.4469 354.7383"/><polygon class="cls-4" points="46.2417 260.4231 50.5805 340.5895 74.4471 354.7383 46.2417 260.4231"/><polygon class="cls-15" points="35.3933 533.9364 46.2417 614.1062 109.1617 552.8003 35.3933 533.9364"/><polygon class="cls-4" points="74.4471 354.7383 83.1256 373.6011 117.8407 368.886 74.4471 354.7383"/><polygon class="cls-4" points="74.4471 354.7383 117.8407 368.886 124.3493 265.1382 74.4471 354.7383"/><polygon class="cls-4" points="78.7869 170.823 70.1073 213.2637 124.3493 265.1382 78.7869 170.823"/><polygon class="cls-23" points="78.7869 170.823 124.3493 265.1382 128.6891 151.9601 78.7869 170.823"/><polygon class="cls-14" points="128.6891 151.9601 156.8945 222.6952 174.2515 156.6742 128.6891 151.9601"/><polygon class="cls-23" points="146.0461 24.6321 128.6891 151.9601 174.2515 156.6742 146.0461 24.6321"/><polygon class="cls-4" points="213.3063 241.5602 191.609 321.7267 230.6628 321.7267 213.3063 241.5602"/><polygon class="cls-4" points="24.5444 359.4546 20.2052 406.6117 28.8837 397.1803 24.5444 359.4546"/><polygon class="cls-5" points=".6783 469.8032 5.018 562.2317 13.696 562.2317 .6783 469.8032"/><polygon class="cls-4" points="13.696 562.2317 .6783 585.8108 20.2052 642.4004 13.696 562.2317"/><polygon class="cls-5" points="9.3568 449.0547 .6783 469.8032 35.3933 533.9364 9.3568 449.0547"/><polygon class="cls-14" points="28.8837 397.1803 9.3568 449.0547 57.0896 401.8954 28.8837 397.1803"/><polygon class="cls-5" points="9.3568 449.0547 35.3933 533.9364 57.0896 401.8954 9.3568 449.0547"/><polygon class="cls-4" points="50.581 340.5895 57.0901 401.8954 74.4476 354.7383 50.581 340.5895"/><polygon class="cls-14" points="57.0896 401.8954 35.3933 533.9364 83.1256 458.485 57.0896 401.8954"/><polygon class="cls-4" points="83.1256 373.6011 83.1256 458.485 98.3133 453.7688 83.1256 373.6011"/><polygon class="cls-14" points="156.8945 222.6952 163.4031 345.3058 191.609 321.7267 156.8945 222.6952"/><polygon class="cls-4" points="185.0999 128.38 174.2515 156.6742 213.3063 241.5602 185.0999 128.38"/><polygon class="cls-4" points="213.3063 241.5602 235.0021 250.9894 243.6816 123.6636 213.3063 241.5602"/><polygon class="cls-4" points="252.3601 62.36 243.6816 104.8008 267.5472 76.5055 252.3601 62.36"/><polygon class="cls-4" points="267.5472 76.5055 243.6816 104.8008 269.7171 118.9485 267.5472 76.5055"/><polygon class="cls-4" points="243.6816 123.6636 235.0021 250.9894 265.3783 147.2428 243.6816 123.6636"/><polygon class="cls-4" points="267.5472 76.5055 269.7171 118.9485 289.244 62.36 267.5472 76.5055"/><polygon class="cls-4" points="302.6961 1.0541 289.244 62.36 315.2805 15.2007 302.6961 1.0541"/><polygon class="cls-4" points="289.244 62.36 302.2623 133.095 330.4677 67.0741 289.244 62.36"/><polygon class="cls-4" points="315.2805 15.2007 289.244 62.36 330.4677 67.0741 315.2805 15.2007"/><polygon class="cls-23" points="86.5968 1.0541 102.6525 67.0741 106.9918 48.2113 86.5968 1.0541"/><polygon class="cls-23" points="70.1073 213.2637 74.4471 354.7383 124.3493 265.1382 70.1073 213.2637"/><polygon class="cls-4" points="156.8945 222.6952 128.6891 279.2859 163.4031 345.3058 156.8945 222.6952"/><polygon class="cls-23" points="172.9497 1.0541 198.1182 71.7892 204.6268 10.4856 172.9497 1.0541"/><polygon class="cls-4" points="215.4752 76.5055 243.6816 123.6636 243.6816 104.8008 215.4752 76.5055"/><polygon class="cls-4" points="243.6816 104.8008 243.6816 123.6636 269.7171 118.9485 243.6816 104.8008"/><polygon class="cls-6" points="50.5805 675.4109 .6783 750.8644 59.259 698.99 50.5805 675.4109"/><polygon class="cls-4" points="117.8407 368.886 128.6891 449.0547 137.3671 401.8954 117.8407 368.886"/><polygon class="cls-6" points="109.1617 552.8003 78.7869 670.6947 141.7073 623.5365 109.1617 552.8003"/><polygon class="cls-4" points="163.4031 345.3058 137.3671 401.8954 165.573 439.6233 163.4031 345.3058"/><polygon class="cls-4" points="163.4031 345.3058 191.609 350.0232 191.609 321.7267 163.4031 345.3058"/><polygon class="cls-7" points="202.4579 444.3395 178.5908 458.485 202.4579 505.6432 202.4579 444.3395"/><polygon class="cls-4" points="191.609 321.7267 191.609 350.0232 230.6628 321.7267 191.609 321.7267"/><polygon class="cls-4" points="202.4579 104.8008 213.3063 241.5602 243.6816 123.6636 202.4579 104.8008"/><polygon class="cls-4" points="216.3432 1.0541 215.4752 76.5055 252.3601 62.36 216.3432 1.0541"/><polygon class="cls-4" points="254.53 340.5895 254.53 373.6011 287.0742 383.0325 254.53 340.5895"/><polygon class="cls-4" points="289.244 62.36 269.7171 118.9485 302.2623 133.095 289.244 62.36"/><polygon class="cls-4" points="315.2805 15.2007 330.4677 67.0741 345.6558 1.0541 315.2805 15.2007"/><polygon class="cls-4" points="302.2623 133.095 315.2805 269.8545 371.6914 203.8323 302.2623 133.095"/><polygon class="cls-4" points="345.6558 1.0541 330.4677 67.0741 354.3344 104.8008 345.6558 1.0541"/><g><polygon class="cls-24" points="5.018 562.2317 .6783 585.8108 13.696 562.2317 5.018 562.2317"/><polygon class="cls-24" points=".6783 585.8108 .6783 657.4909 20.2052 642.4004 .6783 585.8108"/><polygon class="cls-24" points=".6783 469.8032 .6783 563.1746 5.018 562.2317 .6783 469.8032"/><polygon class="cls-24" points="35.3933 533.9364 13.696 562.2317 46.2417 614.1062 35.3933 533.9364"/><polygon class="cls-24" points="83.1256 373.6011 57.0896 401.8954 83.1256 458.485 83.1256 373.6011"/><polygon class="cls-24" points="198.1182 71.7892 185.0999 128.38 202.4579 104.8008 198.1182 71.7892"/><polygon class="cls-24" points="198.1182 71.7892 202.4579 104.8008 215.4752 76.5055 198.1182 71.7892"/><polygon class="cls-24" points="174.2515 156.6742 156.8945 222.6952 213.3063 241.5602 174.2515 156.6742"/><polygon class="cls-24" points="204.6268 10.4856 198.1182 71.7892 215.4752 76.5055 204.6268 10.4856"/><polygon class="cls-24" points="204.6268 10.4856 215.4752 76.5055 216.3432 1.0541 204.6268 10.4856"/><polygon class="cls-24" points="202.4579 104.8008 185.0999 128.38 213.3063 241.5602 202.4579 104.8008"/><polygon class="cls-24" points="215.4752 76.5055 202.4579 104.8008 243.6816 123.6636 215.4752 76.5055"/><polygon class="cls-24" points="215.4752 76.5055 243.6816 104.8008 252.3601 62.36 215.4752 76.5055"/><polygon class="cls-24" points="216.3432 1.0541 252.3601 62.36 259.3025 1.0541 216.3432 1.0541"/><polygon class="cls-24" points="259.3025 1.0541 252.3601 62.36 267.5472 76.5055 259.3025 1.0541"/><polygon class="cls-24" points="259.3025 1.0541 267.5472 76.5055 289.244 62.36 259.3025 1.0541"/><polygon class="cls-24" points="259.3025 1.0541 289.244 62.36 302.6961 1.0541 259.3025 1.0541"/><polygon class="cls-24" points=".6783 469.8032 13.696 562.2317 35.3933 533.9364 .6783 469.8032"/><polygon class="cls-24" points="128.6891 279.2859 117.8407 368.886 143.8762 350.0232 128.6891 279.2859"/></g><polygon class="cls-4" points="302.6961 1.0541 315.2805 15.2007 345.6558 1.0541 302.6961 1.0541"/><polygon class="cls-14" points="354.3344 104.8008 302.2623 133.095 371.6914 203.8323 354.3344 104.8008"/><polygon class="cls-23" points="345.6558 1.0541 354.3344 104.8008 393.3882 15.2007 345.6558 1.0541"/><polygon class="cls-23" points="389.0494 1.0541 345.6558 1.0541 393.3882 15.2007 389.0494 1.0541"/><polygon class="cls-23" points="393.3882 15.2007 354.3344 104.8008 397.7279 62.36 393.3882 15.2007"/><polygon class="cls-3" points="373.8612 425.4745 358.6731 467.9153 373.8612 510.3573 373.8612 425.4745"/><polygon class="cls-35" points="373.8612 425.4745 373.8612 510.3573 399.8968 434.907 373.8612 425.4745"/><polygon class="cls-31" points="315.2805 269.8545 391.2183 359.4546 393.3882 250.9894 315.2805 269.8545"/><polygon class="cls-40" points="358.6731 755.5807 369.5215 807.4529 393.3882 732.0005 358.6731 755.5807"/><polygon class="cls-41" points="369.5215 807.4529 380.3699 816.8854 393.3882 732.0005 369.5215 807.4529"/><polygon class="cls-41" points="373.8612 510.3573 378.201 566.948 406.4064 538.6526 373.8612 510.3573"/><polygon class="cls-44" points="378.201 566.948 406.4064 562.2317 406.4064 538.6526 378.201 566.948"/><polygon class="cls-29" points="391.2183 359.4546 373.8612 425.4745 399.8968 434.907 391.2183 359.4546"/><polygon class="cls-48" points="378.201 566.948 371.6914 642.4004 410.7452 595.2433 378.201 566.948"/><polygon class="cls-35" points="406.4064 562.2317 378.201 566.948 410.7452 595.2433 406.4064 562.2317"/><polygon class="cls-23" points="389.0494 1.0541 393.3882 15.2007 412.9151 1.0541 389.0494 1.0541"/><polygon class="cls-23" points="393.3882 15.2007 397.7279 62.36 412.9151 1.0541 393.3882 15.2007"/><polygon class="cls-28" points="406.4064 562.2317 410.7452 595.2433 412.9151 563.1746 406.4064 562.2317"/><polygon class="cls-28" points="406.4064 538.6526 406.4064 562.2317 412.9151 563.1746 406.4064 538.6526"/><polygon class="cls-4" points="397.7279 62.36 354.3344 104.8008 412.9151 94.4255 397.7279 62.36"/><polygon class="cls-14" points="354.3344 104.8008 371.6914 203.8323 412.9151 94.4255 354.3344 104.8008"/><polygon class="cls-23" points="412.9151 1.0541 397.7279 62.36 412.9151 94.4255 412.9151 1.0541"/><polygon class="cls-50" points="389.0494 840.4645 389.0494 897.053 412.9151 845.1808 389.0494 840.4645"/><polygon class="cls-14" points="412.9151 94.4255 371.6914 203.8323 412.9151 187.8002 412.9151 94.4255"/><polygon class="cls-10" points="371.6914 203.8323 393.3882 250.9894 412.9151 187.8002 371.6914 203.8323"/><polygon class="cls-31" points="412.9151 187.8002 393.3882 250.9894 412.9151 282.1144 412.9151 187.8002"/><polygon class="cls-26" points="393.3882 250.9894 391.2183 359.4546 412.9151 282.1144 393.3882 250.9894"/><polygon class="cls-26" points="412.9151 282.1144 391.2183 359.4546 412.9151 375.4868 412.9151 282.1144"/><polygon class="cls-28" points="391.2183 359.4546 399.8968 434.907 412.9151 375.4868 391.2183 359.4546"/><polygon class="cls-44" points="373.8612 510.3573 406.4064 538.6526 412.9151 469.8032 373.8612 510.3573"/><polygon class="cls-35" points="399.8968 434.907 373.8612 510.3573 412.9151 469.8032 399.8968 434.907"/><polygon class="cls-3" points="406.4064 538.6526 412.9151 563.1746 412.9151 469.8032 406.4064 538.6526"/><polygon class="cls-33" points="412.9151 375.4868 399.8968 434.907 412.9151 469.8032 412.9151 375.4868"/><polygon class="cls-48" points="393.3882 732.0005 380.3699 816.8854 412.9151 750.8644 393.3882 732.0005"/><polygon class="cls-48" points="389.0494 840.4645 412.9151 845.1808 412.9151 750.8644 389.0494 840.4645"/><polygon class="cls-50" points="380.3699 816.8854 389.0494 840.4645 412.9151 750.8644 380.3699 816.8854"/><polygon class="cls-49" points="410.7452 595.2433 371.6914 642.4004 412.9151 657.4909 410.7452 595.2433"/><polygon class="cls-50" points="371.6914 642.4004 376.0312 665.9806 412.9151 657.4909 371.6914 642.4004"/><polygon class="cls-50" points="376.0312 665.9806 393.3882 732.0005 412.9151 657.4909 376.0312 665.9806"/><polygon class="cls-40" points="393.3882 732.0005 412.9151 750.8644 412.9151 657.4909 393.3882 732.0005"/><polygon class="cls-41" points="412.9151 563.1746 410.7452 595.2433 412.9151 657.4909 412.9151 563.1746"/><polygon class="cls-40" points="412.9151 845.1808 389.0494 897.053 412.9151 897.053 412.9151 845.1808"/><path class="cls-1" d="M1.7632,1.0553H414V94.4255l-41.2237,109.4079-56.4109,66.0222-28.2064,113.1781s-8.6458,16.0801-13.0173,33.0116c-1.7318,6.7074-17.358,103.7456-17.358,103.7456l2.1699,33.0106-19.5269-4.7152-28.2054,51.8723-8.6785,70.7373-23.8672,14.1488-15.1876,37.7257-15.1877,33.0116-45.5629,28.2931-17.357,37.7268-30.3758,14.1476-19.5264-4.7162L1.7632,897.0541V1.0553Z"/><polygon class="cls-38" points="412.2915 803.5642 412.2915 893.8109 0 893.8109 2.1699 801.2647 412.2915 803.5642"/></g></g></svg>