<?xml version="1.0" encoding="UTF-8"?><svg id="Layer_2" xmlns="http://www.w3.org/2000/svg" xmlns:xlink="http://www.w3.org/1999/xlink" viewBox="0 0 1920 1086.5773"><defs><style>.cls-1{fill:url(#linear-gradient);opacity:.37;}.cls-2,.cls-3{fill:#9fa2af;}.cls-4,.cls-5,.cls-6,.cls-7{fill:#111838;}.cls-8,.cls-9{fill:#10193a;}.cls-10,.cls-11,.cls-12,.cls-13{fill:#1f2644;}.cls-14,.cls-15,.cls-16{fill:#131a3a;}.cls-17,.cls-18,.cls-19,.cls-20,.cls-21{fill:#152144;}.cls-22{fill:#070707;}.cls-23,.cls-24,.cls-25{fill:#0f1637;}.cls-26,.cls-27,.cls-28,.cls-29,.cls-30{fill:#3f455f;}.cls-31,.cls-32,.cls-33{fill:#272d4b;}.cls-34,.cls-35,.cls-36,.cls-37{fill:#575c73;}.cls-18,.cls-21,.cls-27,.cls-25,.cls-9,.cls-7,.cls-32,.cls-36{stroke:#5f647a;}.cls-19{stroke:#4f546d;}.cls-20{stroke:#2f3552;}.cls-15,.cls-5,.cls-24{stroke:#111838;}.cls-38{fill:url(#linear-gradient-2);}.cls-39{fill:#e7e8eb;}.cls-39,.cls-40,.cls-41,.cls-42,.cls-43,.cls-44,.cls-45,.cls-46,.cls-47,.cls-3,.cls-48,.cls-21,.cls-11,.cls-27,.cls-28,.cls-25,.cls-6,.cls-12,.cls-13,.cls-29,.cls-16,.cls-9,.cls-7,.cls-30,.cls-49,.cls-50,.cls-35,.cls-32,.cls-36,.cls-51,.cls-33,.cls-37{stroke-width:.5px;}.cls-39,.cls-40,.cls-41,.cls-42,.cls-43,.cls-44,.cls-45,.cls-46,.cls-47,.cls-3,.cls-48,.cls-28,.cls-6,.cls-13,.cls-16,.cls-49,.cls-50,.cls-35,.cls-51,.cls-33{stroke:#b0b2bd;}.cls-40{fill:#d0d1d8;}.cls-41{fill:#cfd0d7;}.cls-42{fill:#b0b2bd;}.cls-43{fill:#9093a2;}.cls-44{fill:#808395;}.cls-45{fill:#fdfbfd;}.cls-46{fill:#b7b9c3;}.cls-47{fill:#a0a2b0;}.cls-48{fill:#f0f1f3;}.cls-11,.cls-29{stroke:#9093a2;}.cls-12{stroke:#c0c2ca;}.cls-30{stroke:#3f455f;}.cls-49{fill:#c0c2ca;}.cls-50{fill:#e0e1e5;}.cls-51{fill:#4f546d;}.cls-37{stroke:#808395;}</style><linearGradient id="linear-gradient" x1="9603.3593" y1="-184.9072" x2="11515.1821" y2="-184.9072" gradientTransform="translate(11523.3593 358.6448) rotate(-180)" gradientUnits="userSpaceOnUse"><stop offset=".436" stop-color="#0f1637" stop-opacity=".09"/><stop offset=".6267" stop-color="#0f1637" stop-opacity=".3299"/><stop offset=".9803" stop-color="#0f1637" stop-opacity=".961"/><stop offset="1" stop-color="#0f1637"/></linearGradient><linearGradient id="linear-gradient-2" x1="956.7398" y1="982.2027" x2="955.8259" y2="1112.1022" gradientUnits="userSpaceOnUse"><stop offset=".0975" stop-color="#fff" stop-opacity="0"/><stop offset=".2052" stop-color="#fff" stop-opacity=".0143"/><stop offset=".3041" stop-color="#fff" stop-opacity=".058"/><stop offset=".3998" stop-color="#fff" stop-opacity=".1313"/><stop offset=".4933" stop-color="#fff" stop-opacity=".2344"/><stop offset=".5854" stop-color="#fff" stop-opacity=".3673"/><stop offset=".6763" stop-color="#fff" stop-opacity=".5301"/><stop offset=".7646" stop-color="#fff" stop-opacity=".7192"/><stop offset=".838" stop-color="#fff" stop-opacity=".9"/></linearGradient></defs><g id="Layer_1-2"><g><polygon class="cls-22" points="3.1456 681.687 3.1456 709.0868 23.2721 680.5458 3.1456 681.687"/><polygon class="cls-23" points="3.1456 114.2954 3.1456 227.3196 53.4569 172.5186 3.1456 114.2954"/><polygon class="cls-23" points="3.1456 454.5025 3.1456 568.6667 43.3938 543.552 3.1456 454.5025"/><polygon class="cls-45" points="3.1456 1023.0381 3.1456 1085.8262 3.1456 1085.8262 3.1456 1023.0381"/><polygon class="cls-23" points="3.1456 1.2751 3.1456 114.2954 83.642 81.1882 3.1456 1.2751"/><polygon class="cls-23" points="3.1456 454.5025 43.3938 543.552 93.7051 492.1774 3.1456 454.5025"/><polygon class="cls-23" points="3.1456 114.2954 53.4569 172.5186 123.8925 138.2701 3.1456 114.2954"/><polygon class="cls-23" points="3.1456 454.5025 93.7051 492.1774 113.8292 435.0966 3.1456 454.5025"/><polygon class="cls-23" points="83.642 81.1882 3.1456 114.2954 123.8925 138.2701 83.642 81.1882"/><polygon class="cls-23" points="3.1456 341.4811 3.1456 454.5025 113.8292 435.0966 3.1456 341.4811"/><polygon class="cls-45" points="3.1456 1085.8262 3.1456 1085.8262 3.1456 908.8739 3.1456 1085.8262"/><polygon class="cls-44" points="3.1456 908.8739 3.1456 1023.0381 164.1429 1005.9119 3.1456 908.8739"/><polygon class="cls-23" points="3.1456 227.3196 3.1456 341.4811 204.391 275.2666 3.1456 227.3196"/><polygon class="cls-23" points="3.1456 341.4811 184.2648 326.6412 204.391 275.2666 3.1456 341.4811"/><polygon class="cls-23" points="3.1456 1.2751 83.642 81.1882 202.3793 1.2751 3.1456 1.2751"/><polygon class="cls-42" points="164.1429 1005.9119 3.1456 1085.8262 202.3793 1085.8262 164.1429 1005.9119"/><polygon class="cls-46" points="3.1456 1023.0381 3.1456 1085.8262 164.1429 1005.9119 3.1456 1023.0381"/><polygon class="cls-23" points="204.391 275.2666 184.2648 326.6412 214.4544 315.2251 204.391 275.2666"/><polygon class="cls-23" points="3.1456 341.4811 113.8292 435.0966 184.2648 326.6412 3.1456 341.4811"/><polygon class="cls-23" points="53.4569 172.5186 3.1456 227.3196 204.391 275.2666 53.4569 172.5186"/><polygon class="cls-23" points="244.6392 6.9812 202.3793 1.2751 244.6392 18.3986 244.6392 6.9812"/><polygon class="cls-13" points="93.7051 777.585 3.1456 908.8739 234.5761 817.5421 93.7051 777.585"/><polygon class="cls-4" points="184.2648 326.6412 113.8292 435.0966 234.5761 412.2616 184.2648 326.6412"/><polygon class="cls-46" points="3.1456 908.8739 164.1429 1005.9119 254.7002 937.415 3.1456 908.8739"/><polygon class="cls-16" points="214.4544 743.3366 93.7051 777.585 234.5761 817.5421 214.4544 743.3366"/><polygon class="cls-23" points="202.3793 1.2751 83.642 81.1882 244.6392 18.3986 202.3793 1.2751"/><polygon class="cls-44" points="164.1429 1005.9119 202.3793 1085.8262 254.7002 1011.6206 164.1429 1005.9119"/><polygon class="cls-35" points="164.1429 1005.9119 254.7002 1011.6206 284.8874 971.6621 164.1429 1005.9119"/><polygon class="cls-40" points="254.7002 937.415 164.1429 1005.9119 284.8874 971.6621 254.7002 937.415"/><polygon class="cls-28" points="3.1456 908.8739 254.7002 937.415 274.8242 846.0831 3.1456 908.8739"/><polygon class="cls-23" points="123.8925 138.2701 53.4569 172.5186 204.391 275.2666 123.8925 138.2701"/><polygon class="cls-23" points="123.8925 138.2701 204.391 275.2666 294.9507 178.2274 123.8925 138.2701"/><polygon class="cls-23" points="254.7002 138.2701 123.8925 138.2701 294.9507 178.2274 254.7002 138.2701"/><polygon class="cls-23" points="83.642 81.1882 123.8925 138.2701 254.7002 138.2701 83.642 81.1882"/><polygon class="cls-23" points="244.6392 18.3986 83.642 81.1882 254.7002 138.2701 244.6392 18.3986"/><polygon class="cls-23" points="294.9507 178.2274 204.391 275.2666 325.1355 258.1417 294.9507 178.2274"/><polygon class="cls-35" points="274.8242 846.0831 254.7002 937.415 315.0748 857.5006 274.8242 846.0831"/><polygon class="cls-23" points="204.391 275.2666 214.4544 315.2251 325.1355 258.1417 204.391 275.2666"/><polygon class="cls-28" points="234.5761 817.5421 274.8242 846.0831 365.3885 811.8334 234.5761 817.5421"/><polygon class="cls-35" points="274.8242 846.0831 315.0748 857.5006 365.3885 811.8334 274.8242 846.0831"/><polygon class="cls-23" points="294.9507 178.2274 325.1355 258.1417 365.3885 206.7697 294.9507 178.2274"/><polygon class="cls-28" points="214.4544 743.3366 234.5761 817.5421 365.3885 811.8334 214.4544 743.3366"/><polygon class="cls-28" points="284.8874 971.6621 254.7002 1011.6206 395.5733 994.4957 284.8874 971.6621"/><polygon class="cls-47" points="254.7002 1011.6206 202.3793 1085.8262 401.6084 1085.8262 254.7002 1011.6206"/><polygon class="cls-43" points="395.5733 994.4957 254.7002 1011.6206 401.6084 1085.8262 395.5733 994.4957"/><polygon class="cls-23" points="244.6392 6.9812 244.6392 18.3986 401.6084 1.2751 244.6392 6.9812"/><polygon class="cls-23" points="244.6392 18.3986 254.7002 138.2701 476.0696 81.1882 244.6392 18.3986"/><polygon class="cls-23" points="401.6084 1.2751 244.6392 18.3986 476.0696 81.1882 401.6084 1.2751"/><polygon class="cls-49" points="254.7002 937.415 284.8874 971.6621 476.0696 948.8298 254.7002 937.415"/><polygon class="cls-3" points="284.8874 971.6621 395.5733 994.4957 476.0696 948.8298 284.8874 971.6621"/><polygon class="cls-44" points="315.0748 857.5006 254.7002 937.415 476.0696 948.8298 315.0748 857.5006"/><polygon class="cls-23" points="254.7002 138.2701 294.9507 178.2274 476.0696 81.1882 254.7002 138.2701"/><polygon class="cls-35" points="365.3885 811.8334 315.0748 857.5006 506.2571 874.6242 365.3885 811.8334"/><polygon class="cls-28" points="315.0748 857.5006 476.0696 948.8298 506.2571 874.6242 315.0748 857.5006"/><polygon class="cls-23" points="385.5102 554.9668 164.1429 646.296 506.2571 669.1296 385.5102 554.9668"/><polygon class="cls-23" points="325.1355 258.1417 214.4544 315.2251 345.262 429.3878 325.1355 258.1417"/><polygon class="cls-3" points="395.5733 994.4957 401.6084 1085.8262 516.3178 1017.3293 395.5733 994.4957"/><polygon class="cls-35" points="476.0696 948.8298 395.5733 994.4957 516.3178 1017.3293 476.0696 948.8298"/><polygon class="cls-13" points="214.4544 743.3366 365.3885 811.8334 506.2571 669.1296 214.4544 743.3366"/><polygon class="cls-23" points="294.9507 178.2274 365.3885 206.7697 476.0696 81.1882 294.9507 178.2274"/><polygon class="cls-31" points="455.9456 549.2581 506.2571 669.1296 546.5074 554.9668 455.9456 549.2581"/><polygon class="cls-23" points="401.6084 1.2751 496.1937 58.3559 602.8541 1.2751 401.6084 1.2751"/><polygon class="cls-46" points="516.3178 1017.3293 401.6084 1085.8262 602.8541 1085.8262 516.3178 1017.3293"/><polygon class="cls-23" points="476.0696 81.1882 365.3885 206.7697 596.8189 183.9374 476.0696 81.1882"/><polygon class="cls-8" points="546.5074 554.9668 506.2571 669.1296 606.882 594.9227 546.5074 554.9668"/><polygon class="cls-31" points="576.6925 320.9324 546.5074 446.5128 596.8189 338.0574 576.6925 320.9324"/><polygon class="cls-17" points="606.882 594.9227 506.2571 669.1296 616.9406 623.4637 606.882 594.9227"/><polygon class="cls-23" points="596.8189 543.552 546.5074 554.9668 606.882 594.9227 596.8189 543.552"/><polygon class="cls-23" points="546.5074 446.5128 546.5074 554.9668 596.8189 543.552 546.5074 446.5128"/><polygon class="cls-23" points="202.3793 1.2751 244.6392 6.9812 401.6084 1.2751 202.3793 1.2751"/><polygon class="cls-31" points="657.1933 754.7514 506.2571 874.6242 667.2519 771.8775 657.1933 754.7514"/><polygon class="cls-28" points="365.3885 811.8334 506.2571 874.6242 657.1933 754.7514 365.3885 811.8334"/><polygon class="cls-23" points="637.0647 486.4686 596.8189 543.552 657.1933 537.8445 637.0647 486.4686"/><polygon class="cls-20" points="616.9406 623.4637 506.2571 669.1296 677.3153 691.9631 616.9406 623.4637"/><polygon class="cls-18" points="506.2571 669.1296 657.1933 754.7514 677.3153 691.9631 506.2571 669.1296"/><polygon class="cls-31" points="546.5074 446.5128 637.0647 486.4686 667.2519 423.6805 546.5074 446.5128"/><polygon class="cls-3" points="506.2571 874.6242 476.0696 948.8298 687.376 914.5827 506.2571 874.6242"/><polygon class="cls-31" points="677.3153 880.3329 506.2571 874.6242 687.376 914.5827 677.3153 880.3329"/><polygon class="cls-23" points="602.8541 1.2751 496.1937 58.3559 677.3153 29.8148 602.8541 1.2751"/><polygon class="cls-31" points="596.8189 543.552 606.882 594.9227 657.1933 537.8445 596.8189 543.552"/><polygon class="cls-23" points="657.1933 537.8445 606.882 594.9227 707.5001 566.3816 657.1933 537.8445"/><polygon class="cls-3" points="476.0696 948.8298 516.3178 1017.3293 687.376 914.5827 476.0696 948.8298"/><polygon class="cls-2" points="667.2519 771.8775 506.2571 874.6242 677.3153 880.3329 667.2519 771.8775"/><polygon class="cls-4" points="596.8189 183.9374 576.6925 320.9324 727.6266 269.5578 596.8189 183.9374"/><polygon class="cls-31" points="657.1933 754.7514 667.2519 771.8775 737.6897 737.6277 657.1933 754.7514"/><polygon class="cls-34" points="677.3153 691.9631 657.1933 754.7514 737.6897 737.6277 677.3153 691.9631"/><polygon class="cls-23" points="576.6925 320.9324 596.8189 338.0574 727.6266 269.5578 576.6925 320.9324"/><polygon class="cls-31" points="606.882 594.9227 616.9406 623.4637 707.5001 566.3816 606.882 594.9227"/><polygon class="cls-23" points="496.1937 58.3559 476.0696 81.1882 596.8189 183.9374 496.1937 58.3559"/><polygon class="cls-23" points="496.1937 58.3559 596.8189 183.9374 677.3153 29.8148 496.1937 58.3559"/><polygon class="cls-23" points="637.0647 486.4686 657.1933 537.8445 767.8748 532.1359 637.0647 486.4686"/><polygon class="cls-23" points="657.1933 537.8445 707.5001 566.3816 767.8748 532.1359 657.1933 537.8445"/><polygon class="cls-8" points="707.3119 566.2525 757.5464 572.1756 768.1385 532.2651 707.3119 566.2525"/><polygon class="cls-26" points="677.3153 880.3329 687.376 914.5827 757.8116 874.6242 677.3153 880.3329"/><polygon class="cls-34" points="667.2519 771.8775 677.3153 880.3329 757.8116 874.6242 667.2519 771.8775"/><polygon class="cls-28" points="737.6897 737.6277 667.2519 771.8775 808.1229 806.1273 737.6897 737.6277"/><polygon class="cls-35" points="667.2519 771.8775 757.8116 874.6242 808.1229 806.1273 667.2519 771.8775"/><polygon class="cls-41" points="687.376 914.5827 516.3178 1017.3293 808.1229 960.2473 687.376 914.5827"/><polygon class="cls-23" points="602.8541 1.2751 677.3153 29.8148 802.0854 1.2751 602.8541 1.2751"/><polygon class="cls-8" points="667.2519 423.6805 637.0647 486.4686 757.8116 417.9704 667.2519 423.6805"/><polygon class="cls-34" points="707.5001 566.3816 616.9406 623.4637 757.8116 572.0904 707.5001 566.3816"/><polygon class="cls-32" points="767.8748 532.1359 757.8116 572.0904 828.247 554.9668 767.8748 532.1359"/><polygon class="cls-44" points="808.1229 806.1273 757.8116 874.6242 828.247 828.9596 808.1229 806.1273"/><polygon class="cls-3" points="516.3178 1017.3293 602.8541 1085.8262 808.1229 960.2473 516.3178 1017.3293"/><polygon class="cls-19" points="616.9406 623.4637 677.3153 691.9631 757.8116 572.0904 616.9406 623.4637"/><polygon class="cls-40" points="602.8541 1085.8262 802.0854 1085.8262 808.1229 960.2473 602.8541 1085.8262"/><polygon class="cls-3" points="757.8116 874.6242 687.376 914.5827 808.1229 960.2473 757.8116 874.6242"/><polygon class="cls-23" points="677.3153 29.8148 808.1229 189.6435 858.4342 155.3951 677.3153 29.8148"/><polygon class="cls-35" points="757.8116 572.0904 677.3153 691.9631 858.4342 657.7135 757.8116 572.0904"/><polygon class="cls-30" points="677.3153 691.9631 848.3756 714.7954 858.4342 657.7135 677.3153 691.9631"/><polygon class="cls-28" points="677.3153 691.9631 737.6897 737.6277 848.3756 714.7954 677.3153 691.9631"/><polygon class="cls-51" points="737.6897 737.6277 808.1229 806.1273 848.3756 714.7954 737.6897 737.6277"/><polygon class="cls-23" points="802.0854 1.2751 677.3153 29.8148 918.8088 86.8955 802.0854 1.2751"/><polygon class="cls-23" points="677.3153 29.8148 858.4342 155.3951 918.8088 86.8955 677.3153 29.8148"/><polygon class="cls-27" points="828.247 554.9668 757.8116 572.0904 858.4342 657.7135 828.247 554.9668"/><polygon class="cls-3" points="828.247 828.9596 757.8116 874.6242 928.872 880.3329 828.247 828.9596"/><polygon class="cls-25" points="757.8116 417.9704 767.8748 532.1359 888.6216 423.6805 757.8116 417.9704"/><polygon class="cls-21" points="828.247 554.9668 858.4342 657.7135 938.9353 612.0489 828.247 554.9668"/><polygon class="cls-33" points="858.4342 657.7135 938.9353 623.4637 938.9353 612.0489 858.4342 657.7135"/><polygon class="cls-35" points="808.1229 806.1273 828.247 828.9596 938.9353 811.8334 808.1229 806.1273"/><polygon class="cls-46" points="757.8116 874.6242 809.6034 963.1016 933.9058 880.5232 757.8116 874.6242"/><polygon class="cls-33" points="828.247 828.9596 928.872 880.3329 938.9353 811.8334 828.247 828.9596"/><polygon class="cls-3" points="808.1229 963.3395 917.1317 969.5239 938.9353 876.765 808.1229 963.3395"/><polygon class="cls-28" points="848.3756 714.7954 808.1229 806.1273 928.872 726.2104 848.3756 714.7954"/><polygon class="cls-39" points="808.1229 960.2473 802.0854 1085.8262 908.7457 965.956 808.1229 960.2473"/><polygon class="cls-32" points="767.8748 532.1359 828.247 554.9668 938.9353 537.8445 767.8748 532.1359"/><polygon class="cls-9" points="888.6216 423.6805 767.8748 532.1359 938.9353 537.8445 888.6216 423.6805"/><polygon class="cls-35" points="928.872 726.2104 808.1229 806.1273 938.9353 811.8334 928.872 726.2104"/><polygon class="cls-33" points="858.4342 657.7135 848.3756 714.7954 928.872 726.2104 858.4342 657.7135"/><polygon class="cls-41" points="938.9353 811.8334 928.872 880.3329 969.1201 874.6242 938.9353 811.8334"/><polygon class="cls-43" points="928.872 880.3329 908.7457 965.956 999.3052 925.9975 928.872 880.3329"/><polygon class="cls-50" points="908.7457 965.956 802.0854 1085.8262 1003.331 1085.8262 908.7457 965.956"/><polygon class="cls-49" points="999.3052 925.9975 908.7457 965.956 999.3052 960.2473 999.3052 925.9975"/><polygon class="cls-3" points="969.1201 874.6242 928.872 880.3329 999.3052 925.9975 969.1201 874.6242"/><polygon class="cls-35" points="928.872 726.2104 938.9353 811.8334 979.1835 726.2104 928.872 726.2104"/><polygon class="cls-30" points="938.9353 623.4637 928.872 726.2104 979.1835 726.2104 938.9353 623.4637"/><polygon class="cls-28" points="858.4342 657.7135 928.872 726.2104 938.9353 623.4637 858.4342 657.7135"/><polygon class="cls-28" points="938.9353 811.8334 969.1201 874.6242 1069.7406 806.1273 938.9353 811.8334"/><polygon class="cls-28" points="979.1835 726.2104 938.9353 811.8334 1069.7406 806.1273 979.1835 726.2104"/><polygon class="cls-40" points="999.3052 960.2473 908.7457 965.956 1003.331 1085.8262 999.3052 960.2473"/><polygon class="cls-33" points="938.9353 612.0489 938.9353 623.4637 1089.8646 640.5899 938.9353 612.0489"/><polygon class="cls-37" points="938.9353 623.4637 979.1835 726.2104 1089.8646 640.5899 938.9353 623.4637"/><polygon class="cls-23" points="989.2466 292.3928 1069.7406 389.4293 1109.9911 332.3473 989.2466 292.3928"/><polygon class="cls-23" points="1089.8646 303.8062 989.2466 292.3928 1109.9911 332.3473 1089.8646 303.8062"/><polygon class="cls-28" points="1089.8646 640.5899 979.1835 726.2104 1109.9911 663.4222 1089.8646 640.5899"/><polygon class="cls-23" points="802.0854 1.2751 948.9939 12.6913 1003.331 1.2751 802.0854 1.2751"/><polygon class="cls-3" points="999.3052 925.9975 999.3052 960.2473 1150.2393 948.8298 999.3052 925.9975"/><polygon class="cls-33" points="969.1201 874.6242 999.3052 925.9975 1150.2393 897.4565 969.1201 874.6242"/><polygon class="cls-41" points="1150.2393 897.4565 999.3052 925.9975 1150.2393 948.8298 1150.2393 897.4565"/><polygon class="cls-3" points="1069.7406 806.1273 969.1201 874.6242 1150.2393 897.4565 1069.7406 806.1273"/><polygon class="cls-36" points="938.9353 537.8445 938.9353 612.0489 1089.8646 640.5899 938.9353 537.8445"/><polygon class="cls-25" points="888.6216 423.6805 938.9353 537.8445 1069.7406 389.4293 888.6216 423.6805"/><polygon class="cls-28" points="1089.8646 640.5899 1109.9911 663.4222 1160.3024 623.4637 1089.8646 640.5899"/><polygon class="cls-17" points="1069.7406 389.4293 1180.4289 452.2201 1180.4289 412.2616 1069.7406 389.4293"/><polygon class="cls-11" points="1069.7406 389.4293 938.9353 537.8445 1180.4289 452.2201 1069.7406 389.4293"/><polygon class="cls-50" points="1200.5506 1045.8704 1003.331 1085.8262 1202.5623 1085.8262 1200.5506 1045.8704"/><polygon class="cls-48" points="999.3052 960.2473 1003.331 1085.8262 1200.5506 1045.8704 999.3052 960.2473"/><polygon class="cls-40" points="1200.5506 983.0796 999.3052 960.2473 1200.5506 1045.8704 1200.5506 983.0796"/><polygon class="cls-50" points="1150.2393 948.8298 999.3052 960.2473 1200.5506 983.0796 1150.2393 948.8298"/><polygon class="cls-28" points="1160.3024 623.4637 1109.9911 663.4222 1200.5506 669.1296 1160.3024 623.4637"/><polygon class="cls-33" points="1190.4875 629.1724 1160.3024 623.4637 1200.5506 669.1296 1190.4875 629.1724"/><polygon class="cls-23" points="1109.9911 332.3473 1069.7406 389.4293 1180.4289 412.2616 1109.9911 332.3473"/><polygon class="cls-33" points="938.9353 537.8445 1089.8646 640.5899 1160.3024 623.4637 938.9353 537.8445"/><polygon class="cls-3" points="979.1835 726.2104 1069.7406 806.1273 1109.9911 663.4222 979.1835 726.2104"/><polygon class="cls-23" points="1130.1176 149.6863 1230.7402 178.2274 1250.8621 143.979 1130.1176 149.6863"/><polygon class="cls-25" points="938.9353 537.8445 1160.3024 623.4637 1180.4289 452.2201 938.9353 537.8445"/><polygon class="cls-3" points="1109.9911 663.4222 1069.7406 806.1273 1270.9883 714.7954 1109.9911 663.4222"/><polygon class="cls-3" points="1200.5506 669.1296 1109.9911 663.4222 1270.9883 714.7954 1200.5506 669.1296"/><polygon class="cls-32" points="1180.4289 452.2201 1160.3024 623.4637 1270.9883 503.5947 1180.4289 452.2201"/><polygon class="cls-50" points="1200.5506 983.0796 1200.5506 1045.8704 1260.9252 1040.1616 1200.5506 983.0796"/><polygon class="cls-50" points="1200.5506 1045.8704 1202.5623 1085.8262 1260.9252 1040.1616 1200.5506 1045.8704"/><polygon class="cls-44" points="1270.9883 714.7954 1069.7406 806.1273 1331.3584 760.46 1270.9883 714.7954"/><polygon class="cls-32" points="1180.4289 452.2201 1270.9883 503.5947 1331.3584 463.6363 1180.4289 452.2201"/><polygon class="cls-35" points="1160.3024 623.4637 1190.4875 629.1724 1270.9883 503.5947 1160.3024 623.4637"/><polygon class="cls-41" points="1069.7406 806.1273 1150.2393 897.4565 1331.3584 760.46 1069.7406 806.1273"/><polygon class="cls-23" points="1089.8646 303.8062 1109.9911 332.3473 1270.9883 206.7697 1089.8646 303.8062"/><polygon class="cls-3" points="1150.2393 897.4565 1150.2393 948.8298 1200.5506 983.0796 1150.2393 897.4565"/><polygon class="cls-46" points="1260.9252 1040.1616 1202.5623 1085.8262 1403.8079 1085.8262 1260.9252 1040.1616"/><polygon class="cls-28" points="1190.4875 629.1724 1200.5506 669.1296 1411.8593 589.2166 1190.4875 629.1724"/><polygon class="cls-28" points="1200.5506 669.1296 1270.9883 714.7954 1411.8593 589.2166 1200.5506 669.1296"/><polygon class="cls-28" points="1270.9883 503.5947 1190.4875 629.1724 1411.8593 589.2166 1270.9883 503.5947"/><polygon class="cls-41" points="1331.3584 760.46 1150.2393 897.4565 1361.548 771.8775 1331.3584 760.46"/><polygon class="cls-17" points="1109.9911 332.3473 1180.4289 412.2616 1462.1706 326.6412 1109.9911 332.3473"/><polygon class="cls-14" points="1270.9883 206.7697 1109.9911 332.3473 1462.1706 326.6412 1270.9883 206.7697"/><polygon class="cls-14" points="1180.4289 412.2616 1331.3584 463.6363 1462.1706 326.6412 1180.4289 412.2616"/><polygon class="cls-46" points="1200.5506 983.0796 1260.9252 1040.1616 1492.3557 965.956 1200.5506 983.0796"/><polygon class="cls-48" points="1260.9252 1040.1616 1482.2926 1057.2852 1492.3557 965.956 1260.9252 1040.1616"/><polygon class="cls-41" points="1150.2393 897.4565 1200.5506 983.0796 1492.3557 965.956 1150.2393 897.4565"/><polygon class="cls-50" points="1260.9252 1040.1616 1403.8079 1085.8262 1482.2926 1057.2852 1260.9252 1040.1616"/><polygon class="cls-28" points="1331.3584 463.6363 1270.9883 503.5947 1411.8593 589.2166 1331.3584 463.6363"/><polygon class="cls-3" points="1270.9883 714.7954 1331.3584 760.46 1532.6039 726.2104 1270.9883 714.7954"/><polygon class="cls-41" points="1331.3584 760.46 1361.548 771.8775 1532.6039 726.2104 1331.3584 760.46"/><polygon class="cls-35" points="1361.548 771.8775 1532.6039 754.7514 1532.6039 726.2104 1361.548 771.8775"/><polygon class="cls-46" points="1361.548 771.8775 1150.2393 897.4565 1492.3557 965.956 1361.548 771.8775"/><polygon class="cls-35" points="1411.8593 589.2166 1532.6039 726.2104 1552.7303 640.5899 1411.8593 589.2166"/><polygon class="cls-3" points="1411.8593 589.2166 1270.9883 714.7954 1532.6039 726.2104 1411.8593 589.2166"/><polygon class="cls-40" points="1492.3557 965.956 1482.2926 1057.2852 1532.6039 965.956 1492.3557 965.956"/><polygon class="cls-10" points="1401.7962 161.1024 1270.9883 206.7697 1462.1706 326.6412 1401.7962 161.1024"/><polygon class="cls-44" points="1552.7303 640.5899 1532.6039 726.2104 1613.1047 703.3781 1552.7303 640.5899"/><polygon class="cls-46" points="1482.2926 1057.2852 1403.8079 1085.8262 1603.0416 1085.8262 1482.2926 1057.2852"/><polygon class="cls-14" points="1532.6039 81.1882 1401.7962 161.1024 1643.2898 126.854 1532.6039 81.1882"/><polygon class="cls-28" points="1532.6039 726.2104 1532.6039 754.7514 1613.1047 703.3781 1532.6039 726.2104"/><polygon class="cls-43" points="1532.6039 754.7514 1492.3557 965.956 1663.4115 914.5827 1532.6039 754.7514"/><polygon class="cls-41" points="1492.3557 965.956 1532.6039 965.956 1663.4115 914.5827 1492.3557 965.956"/><polygon class="cls-33" points="1411.8593 589.2166 1552.7303 640.5899 1663.4115 566.3816 1411.8593 589.2166"/><polygon class="cls-35" points="1331.3584 463.6363 1411.8593 589.2166 1663.4115 566.3816 1331.3584 463.6363"/><polygon class="cls-50" points="1532.6039 965.956 1482.2926 1057.2852 1603.0416 1085.8262 1532.6039 965.956"/><polygon class="cls-41" points="1361.548 771.8775 1492.3557 965.956 1532.6039 754.7514 1361.548 771.8775"/><polygon class="cls-50" points="1663.4115 914.5827 1532.6039 965.956 1713.723 977.3708 1663.4115 914.5827"/><polygon class="cls-41" points="1613.1047 703.3781 1532.6039 754.7514 1723.7862 777.585 1613.1047 703.3781"/><polygon class="cls-41" points="1663.4115 566.3816 1552.7303 640.5899 1733.8492 617.755 1663.4115 566.3816"/><polygon class="cls-48" points="1532.6039 965.956 1603.0416 1085.8262 1713.723 977.3708 1532.6039 965.956"/><polygon class="cls-39" points="1532.6039 754.7514 1663.4115 914.5827 1743.9126 806.1273 1532.6039 754.7514"/><polygon class="cls-41" points="1723.7862 777.585 1532.6039 754.7514 1743.9126 806.1273 1723.7862 777.585"/><polygon class="cls-39" points="1552.7303 640.5899 1613.1047 703.3781 1733.8492 617.755 1552.7303 640.5899"/><polygon class="cls-28" points="1331.3584 463.6363 1663.4115 566.3816 1733.8492 515.0097 1331.3584 463.6363"/><polygon class="cls-39" points="1613.1047 703.3781 1723.7862 777.585 1753.9757 686.2545 1613.1047 703.3781"/><polygon class="cls-44" points="1733.8492 617.755 1613.1047 703.3781 1753.9757 686.2545 1733.8492 617.755"/><polygon class="cls-11" points="1462.1706 326.6412 1331.3584 463.6363 1733.8492 515.0097 1462.1706 326.6412"/><polygon class="cls-40" points="1713.723 977.3708 1603.0416 1085.8262 1804.287 1017.3293 1713.723 977.3708"/><polygon class="cls-46" points="1764.0343 988.7883 1713.723 977.3708 1804.287 1017.3293 1764.0343 988.7883"/><polygon class="cls-12" points="1462.1706 326.6412 1733.8492 515.0097 1814.3456 435.0966 1462.1706 326.6412"/><polygon class="cls-48" points="1804.287 1017.3293 1603.0416 1085.8262 1804.287 1085.8262 1804.287 1017.3293"/><polygon class="cls-31" points="1723.7862 246.7255 1462.1706 326.6412 1824.4089 303.8062 1723.7862 246.7255"/><polygon class="cls-48" points="1743.9126 806.1273 1663.4115 914.5827 1824.4089 886.0404 1743.9126 806.1273"/><polygon class="cls-23" points="113.8268 435.0966 133.9509 480.7612 234.5737 412.2616 113.8268 435.0966"/><polygon class="cls-4" points="234.5763 412.2616 133.9535 480.7612 264.7635 486.4686 234.5763 412.2616"/><polygon class="cls-23" points="214.4618 315.2607 174.2028 326.6412 234.5835 412.2972 214.4618 315.2607"/><polygon class="cls-26" points="455.9456 549.2581 385.5102 554.9668 506.2571 669.1296 455.9456 549.2581"/><polygon class="cls-31" points="385.5102 452.2201 455.9456 549.2581 546.5074 446.5128 385.5102 452.2201"/><polygon class="cls-8" points="546.5074 446.5128 455.9456 549.2581 546.5074 554.9668 546.5074 446.5128"/><polygon class="cls-31" points="596.8189 338.0574 667.2519 423.6805 757.8116 417.9704 596.8189 338.0574"/><polygon class="cls-10" points="727.6266 269.5578 888.6216 389.4293 989.2466 292.3928 727.6266 269.5578"/><polygon class="cls-14" points="1230.7402 178.2274 1089.8646 303.8062 1270.9883 206.7697 1230.7402 178.2274"/><polygon class="cls-23" points="1250.8621 143.979 1230.7402 178.2274 1270.9883 206.7697 1250.8621 143.979"/><polygon class="cls-14" points="1250.8621 143.979 1270.9883 206.7697 1401.7962 161.1024 1250.8621 143.979"/><polygon class="cls-10" points="63.5179 680.5458 93.7051 777.585 214.4544 743.3366 63.5179 680.5458"/><polygon class="cls-6" points="3.1456 795.8511 3.1456 908.8739 93.7051 777.585 3.1456 795.8511"/><polygon class="cls-4" points="93.7051 492.1774 43.3938 543.552 133.9533 480.7612 93.7051 492.1774"/><polygon class="cls-4" points="345.2608 429.3878 264.7621 486.4686 385.509 452.2201 345.2608 429.3878"/><polygon class="cls-4" points="214.4544 315.2251 234.5761 412.2616 345.262 429.3878 214.4544 315.2251"/><polygon class="cls-15" points="164.1429 646.296 214.4544 743.3366 506.2571 669.1296 164.1429 646.296"/><polygon class="cls-4" points="345.262 429.3878 385.5102 452.2201 546.5074 446.5128 345.262 429.3878"/><polygon class="cls-4" points="345.262 429.3878 546.5074 446.5128 576.6925 320.9324 345.262 429.3878"/><polygon class="cls-4" points="365.3885 206.7697 325.1355 258.1417 576.6925 320.9324 365.3885 206.7697"/><polygon class="cls-23" points="365.3885 206.7697 576.6925 320.9324 596.8189 183.9374 365.3885 206.7697"/><polygon class="cls-14" points="596.8189 183.9374 727.6266 269.5578 808.1229 189.6435 596.8189 183.9374"/><polygon class="cls-23" points="677.3153 29.8148 596.8189 183.9374 808.1229 189.6435 677.3153 29.8148"/><polygon class="cls-4" points="989.2466 292.3928 888.6216 389.4293 1069.7406 389.4293 989.2466 292.3928"/><polygon class="cls-4" points="113.8292 435.0966 93.7051 492.1774 133.9533 480.7612 113.8292 435.0966"/><polygon class="cls-5" points="3.1456 568.6667 23.2721 680.5458 63.5179 680.5458 3.1456 568.6667"/><polygon class="cls-4" points="63.5179 680.5458 3.1456 709.0868 93.7051 777.585 63.5179 680.5458"/><polygon class="cls-5" points="43.3938 543.552 3.1456 568.6667 164.1429 646.296 43.3938 543.552"/><polygon class="cls-14" points="133.9533 480.7612 43.3938 543.552 264.7633 486.4686 133.9533 480.7612"/><polygon class="cls-5" points="43.3938 543.552 164.1429 646.296 264.7633 486.4686 43.3938 543.552"/><polygon class="cls-4" points="234.5785 412.2616 264.7657 486.4686 345.2644 429.3878 234.5785 412.2616"/><polygon class="cls-14" points="264.7633 486.4686 164.1429 646.296 385.5102 554.9668 264.7633 486.4686"/><polygon class="cls-4" points="385.5102 452.2201 385.5102 554.9668 455.9456 549.2581 385.5102 452.2201"/><polygon class="cls-14" points="727.6266 269.5578 757.8116 417.9704 888.6216 389.4293 727.6266 269.5578"/><polygon class="cls-4" points="858.4342 155.3951 808.1229 189.6435 989.2466 292.3928 858.4342 155.3951"/><polygon class="cls-4" points="989.2466 292.3928 1089.8646 303.8062 1130.1176 149.6863 989.2466 292.3928"/><polygon class="cls-4" points="1170.3658 75.4821 1130.1176 126.854 1240.7987 92.6043 1170.3658 75.4821"/><polygon class="cls-4" points="1240.7987 92.6043 1130.1176 126.854 1250.8621 143.979 1240.7987 92.6043"/><polygon class="cls-4" points="1130.1176 149.6863 1089.8646 303.8062 1230.7402 178.2274 1130.1176 149.6863"/><polygon class="cls-4" points="1240.7987 92.6043 1250.8621 143.979 1341.4216 75.4821 1240.7987 92.6043"/><polygon class="cls-4" points="1403.8079 1.2751 1341.4216 75.4821 1462.1706 18.3986 1403.8079 1.2751"/><polygon class="cls-4" points="1341.4216 75.4821 1401.7962 161.1024 1532.6039 81.1882 1341.4216 75.4821"/><polygon class="cls-4" points="1462.1706 18.3986 1341.4216 75.4821 1532.6039 81.1882 1462.1706 18.3986"/><polygon class="cls-23" points="401.6084 1.2751 476.0696 81.1882 496.1937 58.3559 401.6084 1.2751"/><polygon class="cls-23" points="325.1355 258.1417 345.262 429.3878 576.6925 320.9324 325.1355 258.1417"/><polygon class="cls-4" points="727.6266 269.5578 596.8189 338.0574 757.8116 417.9704 727.6266 269.5578"/><polygon class="cls-23" points="802.0854 1.2751 918.8088 86.8955 948.9939 12.6913 802.0854 1.2751"/><polygon class="cls-4" points="999.3052 92.6043 1130.1176 149.6863 1130.1176 126.854 999.3052 92.6043"/><polygon class="cls-4" points="1130.1176 126.854 1130.1176 149.6863 1250.8621 143.979 1130.1176 126.854"/><polygon class="cls-6" points="234.5761 817.5421 3.1456 908.8739 274.8242 846.0831 234.5761 817.5421"/><polygon class="cls-4" points="546.5074 446.5128 596.8189 543.552 637.0647 486.4686 546.5074 446.5128"/><polygon class="cls-6" points="506.2571 669.1296 365.3885 811.8334 657.1933 754.7514 506.2571 669.1296"/><polygon class="cls-4" points="757.8116 417.9704 637.0647 486.4686 767.8748 532.1359 757.8116 417.9704"/><polygon class="cls-4" points="757.8116 417.9704 888.6216 423.6805 888.6216 389.4293 757.8116 417.9704"/><polygon class="cls-7" points="938.9353 537.8445 828.247 554.9668 938.9353 612.0489 938.9353 537.8445"/><polygon class="cls-4" points="888.6216 389.4293 888.6216 423.6805 1069.7406 389.4293 888.6216 389.4293"/><polygon class="cls-4" points="938.9353 126.854 989.2466 292.3928 1130.1176 149.6863 938.9353 126.854"/><polygon class="cls-4" points="1003.331 1.2751 999.3052 92.6043 1170.3658 75.4821 1003.331 1.2751"/><polygon class="cls-4" points="1180.4289 412.2616 1180.4289 452.2201 1331.3584 463.6363 1180.4289 412.2616"/><polygon class="cls-4" points="1341.4216 75.4821 1250.8621 143.979 1401.7962 161.1024 1341.4216 75.4821"/><polygon class="cls-4" points="1462.1706 18.3986 1532.6039 81.1882 1603.0416 1.2751 1462.1706 18.3986"/><polygon class="cls-4" points="1401.7962 161.1024 1462.1706 326.6412 1723.7862 246.7255 1401.7962 161.1024"/><polygon class="cls-4" points="1603.0416 1.2751 1532.6039 81.1882 1643.2898 126.854 1603.0416 1.2751"/><g><polygon class="cls-24" points="23.2721 680.5458 3.1456 709.0868 63.5179 680.5458 23.2721 680.5458"/><polygon class="cls-24" points="3.1456 709.0868 3.1456 795.8511 93.7051 777.585 3.1456 709.0868"/><polygon class="cls-24" points="3.1456 568.6667 3.1456 681.687 23.2721 680.5458 3.1456 568.6667"/><polygon class="cls-24" points="164.1429 646.296 63.5179 680.5458 214.4544 743.3366 164.1429 646.296"/><polygon class="cls-24" points="385.5102 452.2201 264.7633 486.4686 385.5102 554.9668 385.5102 452.2201"/><polygon class="cls-24" points="918.8088 86.8955 858.4342 155.3951 938.9353 126.854 918.8088 86.8955"/><polygon class="cls-24" points="918.8088 86.8955 938.9353 126.854 999.3052 92.6043 918.8088 86.8955"/><polygon class="cls-24" points="808.1229 189.6435 727.6266 269.5578 989.2466 292.3928 808.1229 189.6435"/><polygon class="cls-24" points="948.9939 12.6913 918.8088 86.8955 999.3052 92.6043 948.9939 12.6913"/><polygon class="cls-24" points="948.9939 12.6913 999.3052 92.6043 1003.331 1.2751 948.9939 12.6913"/><polygon class="cls-24" points="938.9353 126.854 858.4342 155.3951 989.2466 292.3928 938.9353 126.854"/><polygon class="cls-24" points="999.3052 92.6043 938.9353 126.854 1130.1176 149.6863 999.3052 92.6043"/><polygon class="cls-24" points="999.3052 92.6043 1130.1176 126.854 1170.3658 75.4821 999.3052 92.6043"/><polygon class="cls-24" points="1003.331 1.2751 1170.3658 75.4821 1202.5623 1.2751 1003.331 1.2751"/><polygon class="cls-24" points="1202.5623 1.2751 1170.3658 75.4821 1240.7987 92.6043 1202.5623 1.2751"/><polygon class="cls-24" points="1202.5623 1.2751 1240.7987 92.6043 1341.4216 75.4821 1202.5623 1.2751"/><polygon class="cls-24" points="1202.5623 1.2751 1341.4216 75.4821 1403.8079 1.2751 1202.5623 1.2751"/><polygon class="cls-24" points="3.1456 568.6667 63.5179 680.5458 164.1429 646.296 3.1456 568.6667"/><polygon class="cls-24" points="596.8189 338.0574 546.5074 446.5128 667.2519 423.6805 596.8189 338.0574"/></g><polygon class="cls-4" points="1403.8079 1.2751 1462.1706 18.3986 1603.0416 1.2751 1403.8079 1.2751"/><polygon class="cls-14" points="1643.2898 126.854 1401.7962 161.1024 1723.7862 246.7255 1643.2898 126.854"/><polygon class="cls-23" points="1603.0416 1.2751 1643.2898 126.854 1824.4089 18.3986 1603.0416 1.2751"/><polygon class="cls-23" points="1804.287 1.2751 1603.0416 1.2751 1824.4089 18.3986 1804.287 1.2751"/><polygon class="cls-23" points="1824.4089 18.3986 1643.2898 126.854 1844.5352 75.4821 1824.4089 18.3986"/><polygon class="cls-3" points="1733.8492 515.0097 1663.4115 566.3816 1733.8492 617.755 1733.8492 515.0097"/><polygon class="cls-35" points="1733.8492 515.0097 1733.8492 617.755 1854.5937 526.427 1733.8492 515.0097"/><polygon class="cls-31" points="1462.1706 326.6412 1814.3456 435.0966 1824.4089 303.8062 1462.1706 326.6412"/><polygon class="cls-40" points="1663.4115 914.5827 1713.723 977.3708 1824.4089 886.0404 1663.4115 914.5827"/><polygon class="cls-41" points="1713.723 977.3708 1764.0343 988.7883 1824.4089 886.0404 1713.723 977.3708"/><polygon class="cls-41" points="1733.8492 617.755 1753.9757 686.2545 1884.7833 652.0047 1733.8492 617.755"/><polygon class="cls-44" points="1753.9757 686.2545 1884.7833 680.5458 1884.7833 652.0047 1753.9757 686.2545"/><polygon class="cls-29" points="1814.3456 435.0966 1733.8492 515.0097 1854.5937 526.427 1814.3456 435.0966"/><polygon class="cls-48" points="1753.9757 686.2545 1723.7862 777.585 1904.9053 720.5043 1753.9757 686.2545"/><polygon class="cls-35" points="1884.7833 680.5458 1753.9757 686.2545 1904.9053 720.5043 1884.7833 680.5458"/><polygon class="cls-23" points="1804.287 1.2751 1824.4089 18.3986 1914.9684 1.2751 1804.287 1.2751"/><polygon class="cls-23" points="1824.4089 18.3986 1844.5352 75.4821 1914.9684 1.2751 1824.4089 18.3986"/><polygon class="cls-28" points="1884.7833 680.5458 1904.9053 720.5043 1914.9684 681.687 1884.7833 680.5458"/><polygon class="cls-28" points="1884.7833 652.0047 1884.7833 680.5458 1914.9684 681.687 1884.7833 652.0047"/><polygon class="cls-4" points="1844.5352 75.4821 1643.2898 126.854 1914.9684 114.2954 1844.5352 75.4821"/><polygon class="cls-14" points="1643.2898 126.854 1723.7862 246.7255 1914.9684 114.2954 1643.2898 126.854"/><polygon class="cls-23" points="1914.9684 1.2751 1844.5352 75.4821 1914.9684 114.2954 1914.9684 1.2751"/><polygon class="cls-50" points="1804.287 1017.3293 1804.287 1085.8262 1914.9684 1023.0381 1804.287 1017.3293"/><polygon class="cls-14" points="1914.9684 114.2954 1723.7862 246.7255 1914.9684 227.3196 1914.9684 114.2954"/><polygon class="cls-10" points="1723.7862 246.7255 1824.4089 303.8062 1914.9684 227.3196 1723.7862 246.7255"/><polygon class="cls-31" points="1914.9684 227.3196 1824.4089 303.8062 1914.9684 341.4811 1914.9684 227.3196"/><polygon class="cls-26" points="1824.4089 303.8062 1814.3456 435.0966 1914.9684 341.4811 1824.4089 303.8062"/><polygon class="cls-26" points="1914.9684 341.4811 1814.3456 435.0966 1914.9684 454.5025 1914.9684 341.4811"/><polygon class="cls-28" points="1814.3456 435.0966 1854.5937 526.427 1914.9684 454.5025 1814.3456 435.0966"/><polygon class="cls-44" points="1733.8492 617.755 1884.7833 652.0047 1914.9684 568.6667 1733.8492 617.755"/><polygon class="cls-35" points="1854.5937 526.427 1733.8492 617.755 1914.9684 568.6667 1854.5937 526.427"/><polygon class="cls-3" points="1884.7833 652.0047 1914.9684 681.687 1914.9684 568.6667 1884.7833 652.0047"/><polygon class="cls-33" points="1914.9684 454.5025 1854.5937 526.427 1914.9684 568.6667 1914.9684 454.5025"/><polygon class="cls-48" points="1824.4089 886.0404 1764.0343 988.7883 1914.9684 908.8739 1824.4089 886.0404"/><polygon class="cls-48" points="1804.287 1017.3293 1914.9684 1023.0381 1914.9684 908.8739 1804.287 1017.3293"/><polygon class="cls-50" points="1764.0343 988.7883 1804.287 1017.3293 1914.9684 908.8739 1764.0343 988.7883"/><polygon class="cls-49" points="1904.9053 720.5043 1723.7862 777.585 1914.9684 795.8511 1904.9053 720.5043"/><polygon class="cls-50" points="1723.7862 777.585 1743.9126 806.1273 1914.9684 795.8511 1723.7862 777.585"/><polygon class="cls-50" points="1743.9126 806.1273 1824.4089 886.0404 1914.9684 795.8511 1743.9126 806.1273"/><polygon class="cls-40" points="1824.4089 886.0404 1914.9684 908.8739 1914.9684 795.8511 1824.4089 886.0404"/><polygon class="cls-41" points="1914.9684 681.687 1904.9053 720.5043 1914.9684 795.8511 1914.9684 681.687"/><polygon class="cls-40" points="1914.9684 1023.0381 1804.287 1085.8262 1914.9684 1085.8262 1914.9684 1023.0381"/><path class="cls-1" d="M8.1772,1.2765H1920V114.2954l-191.1823,132.4315-261.6155,79.9157-130.8122,136.995s-40.0964,19.464-60.3701,39.9585c-8.0314,8.1189-80.5009,125.5776-80.5009,125.5776l10.0631,39.9573-90.5595-5.7075-130.8076,62.7882-40.2482,85.6231-110.6883,17.1262-70.4354,45.6646-70.4356,39.9585-211.3064,34.2471-80.4963,45.6659-140.8731,17.1248-90.5573-5.7087L8.1772,1085.8275V1.2765Z"/><polygon class="cls-38" points="1912.0767 972.6638 1912.0767 1081.9018 0 1081.9018 10.0632 969.8804 1912.0767 972.6638"/></g></g></svg>